<svg xmlns="http://www.w3.org/2000/svg" width="124.629" height="114.571" viewBox="0 0 124.629 114.571">
  <g id="Group_3837" data-name="Group 3837" transform="translate(-155.5 -365.759)">
    <g id="Group_3832" data-name="Group 3832" transform="translate(155.5 428.183)">
      <rect id="Rectangle_1526" data-name="Rectangle 1526" width="11.598" height="6.942" transform="translate(44.715 44.975)" fill="#ff6464"/>
      <rect id="Rectangle_1527" data-name="Rectangle 1527" width="11.685" height="6.942" transform="translate(58.742 44.975)" fill="#ff6464"/>
      <path id="Path_10656" data-name="Path 10656" d="M188.869,417.529q0,.694-.043,1.446a10.829,10.829,0,0,1-.2,1.533,9.166,9.166,0,0,1-.463,1.547,6.292,6.292,0,0,1-.824,1.46,4.9,4.9,0,0,1-1.215,1.157,6.072,6.072,0,0,1-1.4.68,6.766,6.766,0,0,1-1.562.318q-.824.073-1.692.072H180.8q-.868,0-1.677-.072a6.981,6.981,0,0,1-1.562-.318,5.977,5.977,0,0,1-1.417-.68,4.878,4.878,0,0,1-1.215-1.157,6.294,6.294,0,0,1-.824-1.46,9.147,9.147,0,0,1-.463-1.547,10.793,10.793,0,0,1-.2-1.533q-.043-.752-.043-1.446V413.19l-.058.087v-10.9H161.71v15.155q0,.694-.043,1.446a10.828,10.828,0,0,1-.2,1.533,9.167,9.167,0,0,1-.463,1.547,6.3,6.3,0,0,1-.824,1.46,4.9,4.9,0,0,1-1.215,1.157,6.071,6.071,0,0,1-1.4.68,6.771,6.771,0,0,1-1.562.318q-.824.073-1.692.072h-5V392.221H137.7V433.7a3.925,3.925,0,0,1-.492,1.229,4.585,4.585,0,0,1-.868,1.027,2.815,2.815,0,0,1-.984.506,7.364,7.364,0,0,1-1.128.232,9.4,9.4,0,0,1-1.157.072h-6.855a8.824,8.824,0,0,1-1.113-.072,7.409,7.409,0,0,1-1.114-.232,2.811,2.811,0,0,1-.984-.506,3.854,3.854,0,0,1-1.359-2.256V410.471H110.025V430.2q0,1.62.1,3.023a17.983,17.983,0,0,0,.376,2.632,12.5,12.5,0,0,0,.752,2.314,8.834,8.834,0,0,0,1.258,2.039,9.746,9.746,0,0,0,4.671,3.225,20.592,20.592,0,0,0,6.464.94H135.68a20.733,20.733,0,0,0,6.479-.94,9.572,9.572,0,0,0,4.657-3.225,10.132,10.132,0,0,0,1.605-2.993,15.552,15.552,0,0,0,.709-3.514h8.851q.954,0,2.111-.029t2.4-.173a20.283,20.283,0,0,0,2.531-.463,12.032,12.032,0,0,0,2.5-.925,11.939,11.939,0,0,0,2.516.925,20.71,20.71,0,0,0,2.56.463q1.258.145,2.415.173t2.111.029h8.011q1.156,0,2.618-.058a22.6,22.6,0,0,0,3.023-.333,17.52,17.52,0,0,0,3.109-.853,9.935,9.935,0,0,0,2.849-1.649,8.426,8.426,0,0,0,2.039-2.386,11.88,11.88,0,0,0,1.114-2.7,14.7,14.7,0,0,0,.477-2.719q.1-1.33.1-2.458V392.221h-11.6Z" transform="translate(-110.025 -392.221)" fill="#ff6464"/>
      <path id="Path_10657" data-name="Path 10657" d="M522.559,445.87a21.338,21.338,0,0,0-.419-3.442,14.761,14.761,0,0,0-1.056-3.21,10.121,10.121,0,0,0-6.2-5.336,19.177,19.177,0,0,0-5.235-.68H492.755v7.925h11.511a6.327,6.327,0,0,1,4.223,1.128,5.832,5.832,0,0,1,1.764,2.661,11.19,11.19,0,0,1,.4,1.938,19.052,19.052,0,0,1,.116,2.2,13.942,13.942,0,0,1-.376,3.9,7.158,7.158,0,0,1-.579,1.562,4.039,4.039,0,0,1-2.169,1.736,9.055,9.055,0,0,1-2.516.4H492.118v7.925h18.135q.983,0,2.213-.116a12.516,12.516,0,0,0,2.5-.506,11.932,11.932,0,0,0,2.531-1.128,9.26,9.26,0,0,0,2.328-1.981,9.962,9.962,0,0,0,2.314-5.032q.23-1.475.361-3.081t.13-3.427Q522.632,447.635,522.559,445.87Z" transform="translate(-398.003 -423.108)" fill="#ff6464"/>
    </g>
    <g id="Group_3836" data-name="Group 3836" transform="translate(181.286 365.759)">
      <path id="Path_10660" data-name="Path 10660" d="M766.2,411.631a15.125,15.125,0,0,1-2.32,7.882q-5.6,8.8-11.241,17.575c-.877,1.367-2.091,1.362-2.972-.009q-3.507-5.463-6.995-10.938-2.056-3.214-4.116-6.426a14.98,14.98,0,1,1,27.309-10.936C766.047,409.716,766.09,410.68,766.2,411.631Zm-5.179.009a9.871,9.871,0,1,0-9.843,9.851A9.85,9.85,0,0,0,761.02,411.641Z" transform="translate(-718.58 -396.613)" fill="#ffaa76"/>
      <path id="Path_10661" data-name="Path 10661" d="M761.387,551.876c2.6-.5,5.124-.993,7.649-1.477q14.092-2.7,28.181-5.414a.853.853,0,0,1,1.158.612c1.066,2.524,2.2,5.02,3.291,7.535A5.358,5.358,0,0,1,796.6,560.9q-16.583.006-33.167,0h-.915Z" transform="translate(-736.424 -501.578)" fill="#ffaa76"/>
      <path id="Path_10662" data-name="Path 10662" d="M698.254,510.917l-22.172,4.252c.161-.426.258-.721.382-1q3.826-8.73,7.657-17.458c.549-1.252,1.076-2.514,1.658-3.75a4.87,4.87,0,0,1,4.213-2.987c1.848-.132,3.713-.029,5.688-.029C696.534,496.9,697.387,503.848,698.254,510.917Z" transform="translate(-676.058 -462.628)" fill="#ffaa76"/>
      <path id="Path_10663" data-name="Path 10663" d="M834.852,517.085c-1.883.366-3.676.718-5.47,1.062q-5.047.969-10.1,1.932c-.377.072-.716.208-.935-.319-1.125-2.7-2.282-5.4-3.475-8.2,1.247-.206,2.425-.4,3.6-.595,4.03-.652,8.059-1.31,12.093-1.932a1,1,0,0,1,.848.321C832.583,511.885,833.691,514.443,834.852,517.085Z" transform="translate(-774.276 -476.161)" fill="#ffaa76"/>
      <path id="Path_10664" data-name="Path 10664" d="M676,574.559l22.51-4.316c.354,2.847.7,5.656,1.06,8.512-.315.021-.529.049-.742.049-5.867,0-11.733.012-17.6,0A5.235,5.235,0,0,1,676,574.559Z" transform="translate(-676 -519.482)" fill="#ffaa76"/>
      <path id="Path_10665" data-name="Path 10665" d="M769.783,511.959l2.937,6.909L755.6,522.153c-.659-5.24-1.313-10.434-1.967-15.628l.15-.08c.315.524.617,1.056.946,1.571,1.783,2.794,3.55,5.6,5.365,8.37a4,4,0,0,0,6.856-.018C767.882,514.958,768.778,513.526,769.783,511.959Z" transform="translate(-730.938 -474.335)" fill="#ffaa76"/>
      <path id="Path_10666" data-name="Path 10666" d="M833.788,492.972,819.9,495.189c.156-.311.24-.527.363-.717.907-1.4,1.805-2.81,2.753-4.185a1.216,1.216,0,0,1,.836-.473c1.7-.044,3.4-.053,5.1-.014A5.3,5.3,0,0,1,833.788,492.972Z" transform="translate(-777.831 -462.54)" fill="#ffaa76"/>
    </g>
  </g>
</svg>
