<svg xmlns="http://www.w3.org/2000/svg" width="108.48" height="97.839" viewBox="0 0 108.48 97.839">
  <g id="Group_3842" data-name="Group 3842" transform="translate(-676 -177.613)">
    <path id="Path_10669" data-name="Path 10669" d="M785.691,202.38a24.942,24.942,0,0,1-3.825,13q-9.235,14.513-18.538,28.984c-1.446,2.255-3.449,2.247-4.9-.014q-5.783-9.009-11.535-18.039-3.39-5.3-6.788-10.6a24.7,24.7,0,1,1,45.037-18.035C785.441,199.222,785.513,200.812,785.691,202.38Zm-8.541.015a16.278,16.278,0,1,0-16.233,16.246A16.245,16.245,0,0,0,777.15,202.4Z" transform="translate(-31.16 0)" fill="#ffaa76"/>
    <path id="Path_10670" data-name="Path 10670" d="M761.387,337.376c4.289-.829,8.45-1.638,12.614-2.436q23.239-4.454,46.475-8.929a1.407,1.407,0,0,1,1.91,1.009c1.758,4.163,3.629,8.279,5.427,12.426,2.805,6.466-1.334,12.809-8.359,12.812q-27.349.009-54.7,0h-1.509Z" transform="translate(-44.219 -76.815)" fill="#ffaa76"/>
    <path id="Path_10671" data-name="Path 10671" d="M712.647,305.559l-36.565,7.012c.266-.7.426-1.189.631-1.657q6.31-14.4,12.628-28.791c.906-2.065,1.774-4.146,2.734-6.185a8.031,8.031,0,0,1,6.949-4.926c3.047-.218,6.123-.047,9.38-.047C709.81,282.436,711.217,293.9,712.647,305.559Z" transform="translate(-0.042 -48.31)" fill="#ffaa76"/>
    <path id="Path_10672" data-name="Path 10672" d="M847.819,303.317c-3.105.6-6.062,1.184-9.021,1.752q-8.323,1.6-16.649,3.187c-.622.119-1.181.342-1.542-.526-1.856-4.46-3.763-8.9-5.73-13.527,2.057-.34,4-.666,5.942-.981,6.646-1.075,13.29-2.161,19.944-3.187a1.643,1.643,0,0,1,1.4.53C844.076,294.742,845.9,298.96,847.819,303.317Z" transform="translate(-71.919 -58.214)" fill="#ffaa76"/>
    <path id="Path_10673" data-name="Path 10673" d="M676,358.361l37.122-7.118c.584,4.695,1.161,9.327,1.748,14.037-.52.035-.872.08-1.224.08-9.675,0-19.35.019-29.024,0A8.633,8.633,0,0,1,676,358.361Z" transform="translate(0 -89.917)" fill="#ffaa76"/>
    <path id="Path_10674" data-name="Path 10674" d="M780.265,296.539c1.675,3.941,3.224,7.583,4.844,11.394l-28.23,5.416c-1.088-8.642-2.166-17.208-3.243-25.773l.247-.131c.519.864,1.018,1.741,1.56,2.591,2.94,4.607,5.855,9.231,8.848,13.8a6.594,6.594,0,0,0,11.306-.03C777.13,301.484,778.609,299.122,780.265,296.539Z" transform="translate(-40.204 -56.878)" fill="#ffaa76"/>
    <path id="Path_10675" data-name="Path 10675" d="M842.8,276.047,819.9,279.7c.257-.513.4-.869.6-1.182,1.5-2.311,2.977-4.634,4.539-6.9a2.006,2.006,0,0,1,1.378-.78c2.8-.073,5.608-.088,8.411-.023A8.741,8.741,0,0,1,842.8,276.047Z" transform="translate(-74.521 -48.246)" fill="#ffaa76"/>
  </g>
</svg>
