<svg xmlns="http://www.w3.org/2000/svg" width="143.212" height="105" viewBox="0 0 143.212 105">
  <g id="Group_10888" data-name="Group 10888" transform="translate(0)">
    <g id="Group_10871" data-name="Group 10871">
      <g id="Group_10870" data-name="Group 10870" transform="translate(23.397 19.647)">
        <path id="Path_13648" data-name="Path 13648" d="M7.16,838.9-28.7,857.864-91,838.9s.415,47.07,1.384,48.593,56.9,19.243,60.637,18.551,33.78-19.1,35.164-20.489S7.16,838.9,7.16,838.9Z" transform="translate(90.995 -820.709)" fill="#ffd141"/>
        <path id="Path_13649" data-name="Path 13649" d="M7.16,808.526S-41.572,790.149-44.2,790.338-90.3,807.28-91,808.526l62.3,18.966Z" transform="translate(90.995 -790.337)" fill="#ffd141"/>
        <path id="Path_13650" data-name="Path 13650" d="M7.16,808.526S-41.572,790.149-44.2,790.338-90.3,807.28-91,808.526l62.3,18.966Z" transform="translate(90.995 -790.337)" fill="#f0a90f" style="mix-blend-mode: multiply;isolation: isolate"/>
      </g>
      <path id="Path_13651" data-name="Path 13651" d="M33.935,757.531s14.537-18.777,17.305-19.608,54.438,11.352,55.669,12.875S85.3,775.718,85.3,775.718,57.055,766.2,33.935,757.531Z" transform="translate(36.255 -737.883)" fill="#f0a90f"/>
      <path id="Path_13652" data-name="Path 13652" d="M-83.272,759.668s-12.252-13.975-23.95-18.362c-1.108-.415-46.378,17.619-46.24,18.362s20.075,13.342,23.4,18.187C-130.065,777.855-87.841,761.694-83.272,759.668Z" transform="translate(153.462 -740.019)" fill="#f0a90f"/>
      <path id="Path_13653" data-name="Path 13653" d="M77.538,777.417c-3.336.482-12.473,1.04-15.593.39-2.179-.453-8.651-3.435-12.546-5.129.62-2.368,3.392-4.407,2.63-5.106-1.036-.951-5.771-6.133-7.945-6.317a12.528,12.528,0,0,1-1.3-.212c-4.431,5.263-8.853,10.974-8.853,10.974,16.245,6.093,35.018,12.6,44.747,15.935-.427-4.286-.731-7.347-.731-7.347C77.889,779.595,79.169,777.181,77.538,777.417Z" transform="translate(36.255 -752.368)" fill="#f0a90f" opacity="0.3" style="mix-blend-mode: multiply;isolation: isolate"/>
    </g>
    <g id="Group_10883" data-name="Group 10883" transform="translate(32.416 6.879)">
      <g id="Group_10875" data-name="Group 10875" transform="translate(13.535)">
        <path id="Path_13654" data-name="Path 13654" d="M-9.536,756.248s8.8,2.565,10.97,2.75,6.909,5.366,7.945,6.317-4.473,4.38-2.2,7.746,7.277.391,7.352,1.4.4,7.2.811,8.668-5.025,11.007-5.962,13.134a24.2,24.2,0,0,1-10.4-4.176s-15.077,8.536-16.126,8.946-5.177-6.736-8.224-12.953-5.93-12.1-5.339-12.8,17.417-8.225,17.417-8.225S-13.1,759.247-9.536,756.248Z" transform="translate(30.781 -756.248)" fill="#84e2d5"/>
        <g id="Group_10872" data-name="Group 10872" transform="translate(5.351 0.477)">
          <path id="Path_13655" data-name="Path 13655" d="M63.822,790.1a7.742,7.742,0,0,0,.991-3.216,10.18,10.18,0,0,1-.223-1.283c-.347-.374-.688-.753-1.034-1.114a72.526,72.526,0,0,1-5.633-6.361c-.062-.081-.121-.163-.182-.244a3.61,3.61,0,0,1-1.091-1.063,3.124,3.124,0,0,1-.528-1.358,39.162,39.162,0,0,1-3.1-6.627,22.346,22.346,0,0,1-1.489-5.919,2.367,2.367,0,0,0-.627-.16,21.6,21.6,0,0,1-2.592-.5C50.275,772.81,55.5,783.32,63.822,790.1Z" transform="translate(-24.037 -760.485)" fill="#24a08b"/>
          <path id="Path_13656" data-name="Path 13656" d="M43.745,789.758a41.777,41.777,0,0,0,4.545,3.6c.518-.994,1.082-2.081,1.621-3.155-.92-.745-1.833-1.494-2.723-2.252a46.7,46.7,0,0,1-9.766-12.29,43.073,43.073,0,0,1-4.382-10.132,36.594,36.594,0,0,1-1.188-7.264c-1-.271-1.944-.533-2.695-.746a18.377,18.377,0,0,0-.725,5.648,26.98,26.98,0,0,0,2.554,9.626A51.536,51.536,0,0,0,43.745,789.758Z" transform="translate(-11.595 -757.522)" fill="#24a08b"/>
          <path id="Path_13657" data-name="Path 13657" d="M2.02,817.083a79.462,79.462,0,0,1-8.674-13.76c-1.653-3.234-3.219-6.531-4.6-9.9-1.744.8-3.587,1.646-5.237,2.421q1.649,4.016,3.566,7.923a118.611,118.611,0,0,0,10.4,17.441c1.775-.989,3.714-2.076,5.436-3.044C2.606,817.806,2.31,817.447,2.02,817.083Z" transform="translate(16.494 -779.976)" fill="#24a08b"/>
          <path id="Path_13658" data-name="Path 13658" d="M11.386,782.846c-.04.523-.048.837-.048.837s-1.1.492-2.748,1.234a86.961,86.961,0,0,0,5.253,12.533,74.564,74.564,0,0,0,7.878,12.336l1.89-1.068a20.8,20.8,0,0,0,3.777,2.207,73.519,73.519,0,0,1-9.505-13.467C15.283,792.842,12.752,788.029,11.386,782.846Z" transform="translate(0.805 -773.361)" fill="#24a08b"/>
        </g>
        <g id="Group_10873" data-name="Group 10873" transform="translate(17.439 5.219)">
          <path id="Path_13659" data-name="Path 13659" d="M28.663,770.19c-4.288,1.733-8.663,3.325-12.82,5.36a.117.117,0,0,0,.1.209c4.158-2.035,8.532-3.627,12.821-5.359.139-.057.035-.266-.1-.21Z" transform="translate(-15.779 -770.181)" fill="#24a08b"/>
        </g>
        <g id="Group_10874" data-name="Group 10874" transform="translate(29.713 28.203)">
          <path id="Path_13660" data-name="Path 13660" d="M61.624,831.561c-2.184,1.21-4.382,2.392-6.522,3.677q-1.642.985-3.235,2.041a28.29,28.29,0,0,1-3.254,1.8.117.117,0,0,0,.1.21,28.075,28.075,0,0,0,3.068-1.679c1.067-.7,2.138-1.384,3.229-2.047,2.2-1.337,4.467-2.548,6.716-3.793.131-.073.029-.283-.1-.21Z" transform="translate(-48.548 -831.546)" fill="#24a08b"/>
        </g>
        <path id="Path_13661" data-name="Path 13661" d="M-25.365,806.824c3.047,6.217,7.175,13.364,8.224,12.953s16.126-8.946,16.126-8.946a24.2,24.2,0,0,0,10.4,4.176c.937-2.126,6.368-11.666,5.962-13.134s-.735-7.662-.811-8.668-5.078,1.969-7.352-1.4a3.583,3.583,0,0,1,.158-4.027A23.059,23.059,0,0,0,3.4,786.227c-1.538.534-1.124,1.9-1.551,2.815,0,0-1.148,2.242-2.822,5.506-1.718-2.182-3.272-3.943-3.958-4.072-1.693-.318-8.147-3.068-9.206-3.492s-.53,6.138-5.079,6.772c-2.34.326-3.672-1.446-4.615-3.165A66.35,66.35,0,0,0-30.7,794.02C-31.295,794.727-28.412,800.608-25.365,806.824Z" transform="translate(30.781 -774.996)" fill="#1b899a" opacity="0.4" style="mix-blend-mode: multiply;isolation: isolate"/>
      </g>
      <g id="Group_10877" data-name="Group 10877" transform="translate(30.585 13)">
        <path id="Path_13662" data-name="Path 13662" d="M63.359,796.867c1.631-.236.351,2.178.413,3.188,0,0,2.363,23.788,3.169,31.622,0,0,.764,3.018-.03,3.513s-24.629.085-25.067-.292.258-4.056.258-4.056l.352-8.905-2.929,8.417s-.7,3.679-1.243,3.87-22.878-8.146-23.437-8.9,1.258-3.28,1.258-3.28c3.614-7,14.513-28.272,14.513-28.272.427-.917.013-2.281,1.551-2.816.545-.189,12.477,5.648,15.6,6.3S60.023,797.35,63.359,796.867Z" transform="translate(-14.741 -790.955)" fill="#1f9999"/>
        <g id="Group_10876" data-name="Group 10876" transform="translate(1.453 2.551)">
          <path id="Path_13663" data-name="Path 13663" d="M90.03,826.576a4.879,4.879,0,0,0,3.913-3.816c.421-1.585.779-3.183,1.207-4.766s.993-3.122,1.413-4.708v0a32.293,32.293,0,0,0,3.9.451,35.312,35.312,0,0,0,3.546-.1,17.451,17.451,0,0,0,6.446,8.284c.173.114.384-.11.21-.225a17.131,17.131,0,0,1-6.32-8.082l.566-.039c1.479-.1,2.946-.18,4.407-.417.2-.033.174-.336-.031-.3a45.959,45.959,0,0,1-5.092.5.184.184,0,0,0-.156.007c-.908.042-1.816.067-2.713.077A27.436,27.436,0,0,1,96.679,813a12.531,12.531,0,0,1-3.55-.685h0a17.345,17.345,0,0,1,1.019-3.078c.083-.177-.212-.315-.294-.137a26.518,26.518,0,0,0-1.446,4.85c-.639,2.6-1.2,5.229-1.743,7.854-.513,2.477-1.005,4.958-1.491,7.442-.238,1.222-.423,2.469-.728,3.677-.048.188.274.248.321.061.294-1.169.473-2.375.706-3.556Q89.746,828,90.03,826.576Zm2.594-12.147c.143-.6.281-1.209.428-1.82a10.548,10.548,0,0,0,2.936.582l.253.04c-.719,2.707-1.587,5.359-2.261,8.079a9.071,9.071,0,0,1-1.289,3.428,4.43,4.43,0,0,1-2.6,1.509q.4-2.03.821-4.059C91.451,819.595,92.005,817,92.624,814.429Z" transform="translate(-62.287 -804.8)" fill="#2eceb7"/>
          <path id="Path_13664" data-name="Path 13664" d="M45.094,806.965c4.547.445,8.147-2.369,10.707-5.471.451.215.906.427,1.373.62,2.665,1.1,5.492,1.78,8.157,2.875.194.079.334-.191.139-.271-2.664-1.093-5.483-1.8-8.157-2.874-2.716-1.1-5.129-2.71-7.7-4.058a.152.152,0,1,0-.139.27c2.036,1.067,3.973,2.279,6.032,3.293-2.479,2.988-5.959,5.751-10.354,5.321C44.942,806.65,44.884,806.945,45.094,806.965Z" transform="translate(-35.095 -797.765)" fill="#2eceb7"/>
          <path id="Path_13665" data-name="Path 13665" d="M41.88,880.795c-7.832-2.227-16.132-3.629-22.985-8.144-.173-.115-.384.111-.212.224,6.909,4.552,15.246,5.972,23.143,8.216C42.028,881.149,42.083,880.853,41.88,880.795Z" transform="translate(-18.619 -844.582)" fill="#2eceb7"/>
          <path id="Path_13666" data-name="Path 13666" d="M112.174,897.408c-1.917.271-3.927.214-5.867.294-2.128.087-4.256.183-6.385.26-3.912.14-7.885.415-11.728-.643-.2-.057-.258.24-.056.3,3.669,1.012,7.525.85,11.266.674,2.1-.1,4.195-.17,6.292-.257,2.152-.091,4.385-.02,6.509-.319A.152.152,0,1,0,112.174,897.408Z" transform="translate(-62.02 -860.025)" fill="#2eceb7"/>
        </g>
        <path id="Path_13667" data-name="Path 13667" d="M106.626,813.23a1.235,1.235,0,1,1-1-1.246A1.138,1.138,0,0,1,106.626,813.23Z" transform="translate(-70.702 -804.092)" fill="#2eceb7"/>
        <path id="Path_13668" data-name="Path 13668" d="M36.087,822.541c-1.239-1.471-5.306-7.354-8.065-10.534-3.456,6.742-9.422,18.377-11.917,23.207,0,0-1.815,2.531-1.258,3.28.292.394,6.555,2.867,12.534,5.106-.31-5.827-.712-12.578-.712-12.578A27.383,27.383,0,0,0,36.087,822.541Z" transform="translate(-14.741 -804.122)" fill="#1b899a" opacity="0.4" style="mix-blend-mode: multiply;isolation: isolate"/>
        <path id="Path_13669" data-name="Path 13669" d="M61.65,887.544c.546-.19,1.243-3.87,1.243-3.87l2.6-7.469A145.636,145.636,0,0,0,52.1,884.258C57.02,886.084,61.412,887.627,61.65,887.544Z" transform="translate(-38.107 -844.274)" fill="#1b899a" opacity="0.4" style="mix-blend-mode: multiply;isolation: isolate"/>
        <path id="Path_13670" data-name="Path 13670" d="M109.944,846.157c-7.519,3.644-15.136,7.153-22.5,11.094l-.321,8.118s-.7,3.68-.258,4.056,24.274.787,25.067.291.03-3.513.03-3.513C111.532,862.039,110.664,853.367,109.944,846.157Z" transform="translate(-59.76 -825.481)" fill="#1b899a" opacity="0.4" style="mix-blend-mode: multiply;isolation: isolate"/>
      </g>
      <g id="Group_10882" data-name="Group 10882" transform="translate(0 13.742)">
        <path id="Path_13671" data-name="Path 13671" d="M-66.917,808.338s6.984-7.657,8.254-9.773,8.889-4.345,10.371-4.923,2.223,6.722,6.773,6.087,4.021-7.2,5.079-6.772,7.512,3.174,9.206,3.492,8.678,10.582,10.371,12.593a27.382,27.382,0,0,1-9.418,8.481s1.164,19.561,1.058,20.831-9.419,1.9-17.249,1.9-15.238,0-15.662-.952.318-21.784.318-21.784S-65.647,813.455-66.917,808.338Z" transform="translate(66.917 -792.937)" fill="#fff"/>
        <g id="Group_10878" data-name="Group 10878" transform="translate(8.89 8.657)">
          <path id="Path_13672" data-name="Path 13672" d="M-42.243,816.177c-.375,5.217-.937,10.453-.939,15.688a.132.132,0,0,0,.264,0c0-5.235.564-10.471.939-15.688.012-.171-.252-.169-.264,0Z" transform="translate(43.182 -816.05)" fill="#72cace"/>
        </g>
        <g id="Group_10879" data-name="Group 10879" transform="translate(39.383 7.442)">
          <path id="Path_13673" data-name="Path 13673" d="M38.23,812.933c.142,2.819.249,5.641.488,8.454.122,1.439.275,2.87.461,4.3a32.093,32.093,0,0,1,.211,4.2.132.132,0,0,0,.264,0,31.637,31.637,0,0,0-.178-3.952c-.179-1.433-.341-2.86-.472-4.3-.264-2.9-.363-5.8-.51-8.708-.008-.17-.273-.171-.264,0Z" transform="translate(-38.229 -812.805)" fill="#72cace"/>
        </g>
        <g id="Group_10880" data-name="Group 10880" transform="translate(29.052 15.672)">
          <path id="Path_13674" data-name="Path 13674" d="M10.649,834.907c.06,1.417-.052,2.867.106,4.276.054.474.137.945.225,1.414.03.158.028.52.15.645.428.438.871.863,1.321,1.278.377.349.765.686,1.169,1,.181.143.561.521.807.521s.6-.363.781-.5c.376-.287.73-.6,1.081-.918q.739-.668,1.436-1.383c.1-.105.1-.389.127-.521.089-.458.169-.918.228-1.381.184-1.46.063-2.963.125-4.433.007-.17-.257-.17-.264,0-.056,1.322.026,2.66-.076,3.978a17.186,17.186,0,0,1-.36,2.218c.016-.076-.184.171-.251.237-.268.267-.54.528-.815.786a12.153,12.153,0,0,1-1.99,1.62c-.264.159-1.7-1.313-1.924-1.518q-.616-.569-1.2-1.168c.069.071.006-.052-.005-.111-.029-.141-.055-.282-.083-.423-.094-.5-.175-.994-.232-1.5-.152-1.355-.031-2.761-.088-4.124-.008-.17-.272-.17-.265,0Z" transform="translate(-10.649 -834.779)" fill="#72cace"/>
        </g>
        <path id="Path_13675" data-name="Path 13675" d="M-13.347,802.715c3.315.056,6.022-2.706,7.016-5.689a14.766,14.766,0,0,0,.585-3.244c-.95-.392-1.7-.7-2-.825-1.058-.423-.53,6.138-5.079,6.772s-5.291-6.666-6.773-6.087c-.284.11-.794.282-1.441.5C-19.679,797.716-17.811,802.662-13.347,802.715Z" transform="translate(38.223 -792.937)" fill="#72cace"/>
        <g id="Group_10881" data-name="Group 10881" transform="translate(4.381 2.298)">
          <path id="Path_13676" data-name="Path 13676" d="M-35.828,835.783a1.548,1.548,0,0,0-1.547,1.547,1.547,1.547,0,0,0,1.547,1.547,1.546,1.546,0,0,0,1.547-1.547A1.547,1.547,0,0,0-35.828,835.783Z" transform="translate(44.059 -822.033)" fill="#72cace"/>
          <path id="Path_13677" data-name="Path 13677" d="M-24.981,862.688a1.547,1.547,0,0,0-1.547,1.547,1.546,1.546,0,0,0,1.547,1.546,1.547,1.547,0,0,0,1.547-1.546A1.547,1.547,0,0,0-24.981,862.688Z" transform="translate(37.275 -838.861)" fill="#72cace"/>
          <path id="Path_13678" data-name="Path 13678" d="M-41.235,881.945a1.546,1.546,0,0,0-1.547-1.547,1.54,1.54,0,0,0-.649.144c-.025.907-.049,1.84-.072,2.77a1.535,1.535,0,0,0,.721.179A1.546,1.546,0,0,0-41.235,881.945Z" transform="translate(47.892 -849.937)" fill="#72cace"/>
          <path id="Path_13679" data-name="Path 13679" d="M-15.547,893.82a1.546,1.546,0,0,0-1.547,1.546,1.547,1.547,0,0,0,1.547,1.547A1.548,1.548,0,0,0-14,895.366,1.546,1.546,0,0,0-15.547,893.82Z" transform="translate(31.374 -858.332)" fill="#72cace"/>
          <path id="Path_13680" data-name="Path 13680" d="M-41.283,912.844a1.547,1.547,0,0,0-1.547,1.547c0,.042,0,.085.007.126a9.433,9.433,0,0,0,2.947.514,1.542,1.542,0,0,0,.139-.641A1.547,1.547,0,0,0-41.283,912.844Z" transform="translate(47.471 -870.23)" fill="#72cace"/>
          <path id="Path_13681" data-name="Path 13681" d="M6.462,874.057A1.547,1.547,0,1,0,8.009,875.6,1.547,1.547,0,0,0,6.462,874.057Z" transform="translate(17.609 -845.971)" fill="#72cace"/>
          <path id="Path_13682" data-name="Path 13682" d="M19.419,897.065a1.547,1.547,0,1,0,1.547,1.547A1.547,1.547,0,0,0,19.419,897.065Z" transform="translate(9.505 -860.362)" fill="#72cace"/>
          <path id="Path_13683" data-name="Path 13683" d="M43.092,912.164a1.543,1.543,0,0,0,.079.486c.252-.132.4-.273.41-.423s.007-.568-.013-1.178A1.541,1.541,0,0,0,43.092,912.164Z" transform="translate(-6.269 -869.107)" fill="#72cace"/>
          <path id="Path_13684" data-name="Path 13684" d="M.516,916.973a1.545,1.545,0,0,0-1.385.863c.907,0,1.83-.011,2.756-.03A1.547,1.547,0,0,0,.516,916.973Z" transform="translate(21.226 -872.813)" fill="#72cace"/>
          <path id="Path_13685" data-name="Path 13685" d="M38.6,881.7a1.546,1.546,0,1,0,.117,2.14C38.68,883.126,38.64,882.408,38.6,881.7Z" transform="translate(-1.834 -850.492)" fill="#72cace"/>
          <path id="Path_13686" data-name="Path 13686" d="M-53.673,819.046a1.547,1.547,0,0,0-1.547,1.547,1.547,1.547,0,0,0,1.547,1.547,1.547,1.547,0,0,0,1.547-1.547A1.547,1.547,0,0,0-53.673,819.046Z" transform="translate(55.22 -811.565)" fill="#72cace"/>
          <path id="Path_13687" data-name="Path 13687" d="M-28.529,809.676a1.547,1.547,0,0,0-1.547-1.547,1.547,1.547,0,0,0-1.547,1.547,1.547,1.547,0,0,0,1.547,1.547A1.547,1.547,0,0,0-28.529,809.676Z" transform="translate(40.461 -804.737)" fill="#72cace"/>
          <path id="Path_13688" data-name="Path 13688" d="M-2.681,823.464a1.547,1.547,0,0,0,1.547-1.547,1.547,1.547,0,0,0-1.547-1.547,1.547,1.547,0,0,0-1.547,1.547A1.547,1.547,0,0,0-2.681,823.464Z" transform="translate(23.327 -812.393)" fill="#72cace"/>
          <path id="Path_13689" data-name="Path 13689" d="M31.459,800.117c0-.026,0-.051,0-.076-.723-.229-1.676-.579-2.682-.968a1.546,1.546,0,1,0,2.686,1.044Z" transform="translate(2.941 -799.073)" fill="#72cace"/>
          <path id="Path_13690" data-name="Path 13690" d="M-7.336,846.255A1.547,1.547,0,0,0-8.883,847.8a1.547,1.547,0,0,0,1.547,1.547A1.546,1.546,0,0,0-5.79,847.8,1.546,1.546,0,0,0-7.336,846.255Z" transform="translate(26.239 -828.583)" fill="#72cace"/>
          <path id="Path_13691" data-name="Path 13691" d="M25.784,823.176a1.547,1.547,0,1,0,1.547,1.547A1.546,1.546,0,0,0,25.784,823.176Z" transform="translate(5.524 -814.148)" fill="#72cace"/>
          <path id="Path_13692" data-name="Path 13692" d="M36.513,852.817a1.547,1.547,0,1,0-1.547,1.546A1.547,1.547,0,0,0,36.513,852.817Z" transform="translate(-0.219 -831.719)" fill="#72cace"/>
          <path id="Path_13693" data-name="Path 13693" d="M57.191,825.012a1.546,1.546,0,1,0,1.818,2.467C58.484,826.771,57.862,825.923,57.191,825.012Z" transform="translate(-14.585 -815.297)" fill="#72cace"/>
        </g>
        <path id="Path_13694" data-name="Path 13694" d="M-49.921,831.054a22.163,22.163,0,0,1-4.041.247,8.17,8.17,0,0,1-3.3-1.319,12.486,12.486,0,0,0-7.841-1.518c-1.059,1.187-1.817,2.017-1.817,2.017,1.27,5.117,9.1,9.185,9.1,9.185s-.74,20.831-.318,21.784,7.831.952,15.662.952,17.143-.635,17.249-1.9c.079-.944-.544-11.991-.869-17.6-1.778-.973-3.551-1.954-5.274-3.018C-37.057,836.414-42.829,830.724-49.921,831.054Z" transform="translate(66.917 -815.08)" fill="#84e2d5" opacity="0.2"/>
      </g>
    </g>
    <g id="Group_10885" data-name="Group 10885" transform="translate(2.487 37.836)">
      <path id="Path_13695" data-name="Path 13695" d="M-28.7,857.864c-.98.075-20.209-5.939-36.985-11.259L-91,838.9s.415,47.07,1.384,48.593,56.9,19.243,60.637,18.551,33.78-19.1,35.164-20.489c1.005-1,1.062-25.143,1.017-38.294Z" transform="translate(111.906 -838.898)" fill="#ffd141"/>
      <path id="Path_13696" data-name="Path 13696" d="M74.87,857.864l-.277,48.178c3.738-.692,33.78-19.1,35.164-20.489s.969-46.655.969-46.655Z" transform="translate(8.339 -838.898)" fill="#f0a90f" opacity="0.5"/>
      <path id="Path_13697" data-name="Path 13697" d="M7.16,838.9-28.7,857.864-91,838.9s.137,15.623.44,29.159c12.139,5.477,45.14,20.095,48.667,18.742,4.331-1.661,13.191-21.874,13.191-21.874S-10.976,883.2-8.9,883.337c1.357.09,9.992-3.111,15.814-5.34C7.4,864.774,7.16,838.9,7.16,838.9Z" transform="translate(111.906 -838.898)" fill="#f0a90f" style="mix-blend-mode: multiply;isolation: isolate"/>
      <path id="Path_13698" data-name="Path 13698" d="M75.332,857.864s18.413,23.673,19.936,23.813,23.266-10.868,37.517-27.965c.693-.83-21.6-14.813-21.6-14.813S85.577,850.527,75.332,857.864Z" transform="translate(7.877 -838.898)" fill="#ffd141"/>
      <path id="Path_13699" data-name="Path 13699" d="M-125.912,838.9s-21.32,16.2-20.9,16.889,65.621,26.445,67.7,25.89,15.505-23.813,15.505-23.813S-106.945,841.667-125.912,838.9Z" transform="translate(146.823 -838.898)" fill="#ffd141"/>
      <g id="Group_10884" data-name="Group 10884" transform="translate(33.887 6.922)">
        <path id="Path_13700" data-name="Path 13700" d="M-32.6,860.469c-3.132-1.035-6.376-2.08-9.624-3.089a66.2,66.2,0,0,0-6.2,8.494,112,112,0,0,0-7.926,15.14c3.291,1.277,6.582,2.546,9.749,3.755,2.629-5.266,5.1-10.626,7.578-15.926A30.275,30.275,0,0,1-32.6,860.469Z" transform="translate(56.349 -857.38)" fill="#f0a90f" opacity="0.5"/>
      </g>
    </g>
    <g id="Group_10887" data-name="Group 10887" transform="translate(16.24 35.168)">
      <g id="Group_10886" data-name="Group 10886" transform="translate(0 29.57)">
        <path id="Path_13701" data-name="Path 13701" d="M-42.73,929.888c.254-.9,1.706-.679,1.452.234-.733,2.607-1.321,5.232-2.817,7.528-.517.795-1.649-.147-1.137-.935C-43.888,934.654-43.386,932.222-42.73,929.888Z" transform="translate(69.611 -922.35)" fill="#27ad97"/>
        <path id="Path_13702" data-name="Path 13702" d="M-50.065,930.089c.328-.89,1.664-.275,1.337.611a17.987,17.987,0,0,1-2.931,5.912c-.622.711-1.76-.221-1.135-.937C-51.395,934.079-50.786,932.043-50.065,930.089Z" transform="translate(74.374 -922.563)" fill="#27ad97"/>
        <path id="Path_13703" data-name="Path 13703" d="M-58.416,928.375a.735.735,0,0,1,1.451.234,12.425,12.425,0,0,1-2.693,6.147c-.631.7-1.771-.227-1.138-.937A10.921,10.921,0,0,0-58.416,928.375Z" transform="translate(79.38 -921.392)" fill="#27ad97"/>
        <path id="Path_13704" data-name="Path 13704" d="M-64.387,925.169c-.57,2-1.658,3.826-2.051,5.876-.178.93-1.631.7-1.451-.234.395-2.064,1.477-3.869,2.05-5.876C-65.583,924.034-64.129,924.258-64.387,925.169Z" transform="translate(83.71 -919.253)" fill="#27ad97"/>
        <path id="Path_13705" data-name="Path 13705" d="M-72.138,925.48a54.574,54.574,0,0,0-2.345,5.225c-.307.895-1.643.278-1.336-.61a53.73,53.73,0,0,1,2.346-5.226A.735.735,0,0,1-72.138,925.48Z" transform="translate(88.689 -919.311)" fill="#27ad97"/>
        <path id="Path_13706" data-name="Path 13706" d="M-78.754,920.359c-.739,1.993-1.839,3.841-2.234,5.949a.735.735,0,0,1-1.451-.234c.42-2.246,1.562-4.2,2.348-6.326C-79.76,918.86-78.425,919.474-78.754,920.359Z" transform="translate(92.81 -916.096)" fill="#27ad97"/>
        <path id="Path_13707" data-name="Path 13707" d="M-86.907,920.817a12.525,12.525,0,0,0-2.285,4.862.735.735,0,0,1-1.451-.234,14.288,14.288,0,0,1,2.6-5.564C-87.529,919.087-86.4,920.028-86.907,920.817Z" transform="translate(97.937 -916.262)" fill="#27ad97"/>
        <path id="Path_13708" data-name="Path 13708" d="M-94.883,918.128a24.809,24.809,0,0,0-2.336,5.33c-.255.9-1.708.679-1.452-.234a26.384,26.384,0,0,1,2.451-5.707C-95.761,916.7-94.42,917.3-94.883,918.128Z" transform="translate(102.972 -914.727)" fill="#27ad97"/>
        <path id="Path_13709" data-name="Path 13709" d="M-100.876,913.181a16.944,16.944,0,0,0-2.416,5.218c-.179.929-1.631.7-1.451-.234a17.91,17.91,0,0,1,2.531-5.594C-101.736,911.762-100.392,912.363-100.876,913.181Z" transform="translate(106.76 -911.639)" fill="#27ad97"/>
        <path id="Path_13710" data-name="Path 13710" d="M-107.767,911.1c.49-.795,1.834-.194,1.336.612a14.908,14.908,0,0,0-2.206,5.153.736.736,0,0,1-1.452-.234A15.932,15.932,0,0,1-107.767,911.1Z" transform="translate(110.103 -910.722)" fill="#27ad97"/>
      </g>
      <path id="Path_13711" data-name="Path 13711" d="M-63.573,844.646s-3.877-6.388-8.138-7.277-10.141-.436-11.025-1.779-7.995-6.434-12.887-2.1-12.132,28.1-11.053,29.471,7.126,4.853,13.518,6.186,14.537,5.449,15.1.734,9.931-26.025,9.931-26.025S-64.846,844.455-63.573,844.646Z" transform="translate(108.027 -831.775)" fill="#80e1d3"/>
      <path id="Path_13712" data-name="Path 13712" d="M-66.583,842.35c-2.879-.765-1.658-3.371-1.408-5.534a7.168,7.168,0,0,0-1.46-4.808c4.44-1.11,9.341,2.494,10.065,3.6.483.737,2.483.931,4.875,1.105a17.992,17.992,0,0,0-3.495,2.118C-60.286,840.563-63.394,843.063-66.583,842.35Z" transform="translate(84.677 -831.789)" fill="#27ad97" opacity="0.4"/>
      <path id="Path_13713" data-name="Path 13713" d="M-33.058,870.418c.938-3.953,1.811-8.118,3.513-11.847.964-2.247,2.56-4.694,5.341-3.944a8.092,8.092,0,0,1,2.573,1.3,26.133,26.133,0,0,1,2.154,2.93c-1.273-.191-4.555-.791-4.555-.791s-9.371,21.312-9.931,26.026a2.289,2.289,0,0,1-2.318,2.162c.214-1.481.414-2.971.682-4.429C-34.888,878.03-33.867,874.191-33.058,870.418Z" transform="translate(63.931 -845.981)" fill="#27ad97" opacity="0.4"/>
    </g>
  </g>
</svg>
