<svg xmlns="http://www.w3.org/2000/svg" width="16" height="14" viewBox="0 0 16 14">
  <path id="ic_business_24px" d="M10,6.111V3H2V17H18V6.111ZM5.2,15.444H3.6V13.889H5.2Zm0-3.111H3.6V10.778H5.2Zm0-3.111H3.6V7.667H5.2Zm0-3.111H3.6V4.556H5.2Zm3.2,9.333H6.8V13.889H8.4Zm0-3.111H6.8V10.778H8.4Zm0-3.111H6.8V7.667H8.4Zm0-3.111H6.8V4.556H8.4Zm8,9.333H10V13.889h1.6V12.333H10V10.778h1.6V9.222H10V7.667h6.4ZM14.8,9.222H13.2v1.556h1.6Zm0,3.111H13.2v1.556h1.6Z" transform="translate(-2 -3)" fill="#ff6464"/>
</svg>
