<svg xmlns="http://www.w3.org/2000/svg" width="15" height="15" viewBox="0 0 15 15">
  <path id="ic_rounded_corner_24px" d="M16.333,16.333H18V18H16.333Zm0-1.667H18V13H16.333ZM3,11.333H4.667V9.667H3Zm0,3.333H4.667V13H3ZM3,8H4.667V6.333H3ZM3,4.667H4.667V3H3Zm3.333,0H8V3H6.333ZM13,18h1.667V16.333H13ZM9.667,18h1.667V16.333H9.667ZM13,18h1.667V16.333H13ZM6.333,18H8V16.333H6.333ZM3,18H4.667V16.333H3ZM18,7.167A4.168,4.168,0,0,0,13.833,3H9.667V4.667h4.167a2.507,2.507,0,0,1,2.5,2.5v4.167H18Z" transform="translate(-3 -3)" fill="#ff6464"/>
</svg>
