<svg xmlns="http://www.w3.org/2000/svg" width="16" height="15" viewBox="0 0 16 15">
  <g id="ic_pool_24px" transform="translate(-2 -3)">
    <path id="Path_100" data-name="Path 100" d="M18,18a2.976,2.976,0,0,1-1.744-.533,1.462,1.462,0,0,0-.92-.3,1.4,1.4,0,0,0-.92.3,3.118,3.118,0,0,1-3.488,0,1.462,1.462,0,0,0-.92-.3,1.4,1.4,0,0,0-.92.3A3.027,3.027,0,0,1,7.336,18a2.976,2.976,0,0,1-1.744-.533,1.414,1.414,0,0,0-.92-.3,1.414,1.414,0,0,0-.92.3A3.027,3.027,0,0,1,2,18V16.333a1.4,1.4,0,0,0,.92-.3A3.027,3.027,0,0,1,4.672,15.5a2.976,2.976,0,0,1,1.744.533,1.4,1.4,0,0,0,.92.3,1.4,1.4,0,0,0,.92-.3,3.027,3.027,0,0,1,1.752-.533,2.976,2.976,0,0,1,1.744.533,1.462,1.462,0,0,0,.92.3,1.414,1.414,0,0,0,.92-.3,3.118,3.118,0,0,1,3.488,0,1.4,1.4,0,0,0,.92.3V18Zm0-3.75a2.976,2.976,0,0,1-1.744-.533,1.462,1.462,0,0,0-.92-.3,1.4,1.4,0,0,0-.92.3,3.118,3.118,0,0,1-3.488,0,1.462,1.462,0,0,0-.92-.3,1.4,1.4,0,0,0-.92.3,2.976,2.976,0,0,1-1.744.533A2.976,2.976,0,0,1,5.6,13.717a1.462,1.462,0,0,0-.92-.3,1.414,1.414,0,0,0-.92.3A3.078,3.078,0,0,1,2,14.25V12.583a1.4,1.4,0,0,0,.92-.3,2.976,2.976,0,0,1,1.744-.533,2.976,2.976,0,0,1,1.744.533,1.462,1.462,0,0,0,.92.3,1.4,1.4,0,0,0,.92-.3,3.118,3.118,0,0,1,3.488,0,1.462,1.462,0,0,0,.92.3,1.414,1.414,0,0,0,.92-.3,3.118,3.118,0,0,1,3.488,0,1.462,1.462,0,0,0,.92.3V14.25ZM7.336,10.5a1.4,1.4,0,0,0,.92-.3,3.027,3.027,0,0,1,1.752-.533,2.976,2.976,0,0,1,1.744.533,1.462,1.462,0,0,0,.92.3,1.414,1.414,0,0,0,.92-.3c.1-.058.208-.125.328-.192L8.784,4.667A5.208,5.208,0,0,0,4.4,3V5.083a3.852,3.852,0,0,1,3.2,1.25l.8.833L5.8,9.875a4.313,4.313,0,0,1,.616.325A1.4,1.4,0,0,0,7.336,10.5Z" transform="translate(0 0)" fill="#ff6464"/>
    <circle id="Ellipse_22" data-name="Ellipse 22" cx="2.5" cy="2.5" r="2.5" transform="translate(10.171 3)" fill="#ff6464"/>
  </g>
</svg>
