<svg xmlns="http://www.w3.org/2000/svg" width="12.964" height="14.531" viewBox="0 0 12.964 14.531">
  <g id="Icons" transform="translate(-13.235 -11.935)">
    <g id="Group_3833" data-name="Group 3833" transform="translate(13.235 11.935)">
      <path id="Path_13347" data-name="Path 13347" d="M26.142,20.69a1.41,1.41,0,0,0-.277-.434,1.355,1.355,0,0,0-.494-.316,3.731,3.731,0,0,1-1.45-1.76s-.006-.008-.008-.012l-.793-2.059a5.065,5.065,0,0,0-2.7-2.83,4.933,4.933,0,0,0-2.534-.41l-.014-.036a1.4,1.4,0,0,0-2.614,1l.012.03a5.1,5.1,0,0,0-1.688,5.9l.8,2.08v0a3.815,3.815,0,0,1,.106,2.248,1.275,1.275,0,0,0-.1,1.116l0,.009a.9.9,0,0,0,1.157.46l10.093-3.852a.886.886,0,0,0,.513-1.143ZM14.96,19.161a.235.235,0,0,1-.04,0,.211.211,0,0,1-.207-.171,4.261,4.261,0,0,1-.076-.733.211.211,0,0,1,.207-.214h0a.211.211,0,0,1,.211.207,3.8,3.8,0,0,0,.069.66A.211.211,0,0,1,14.96,19.161Zm1.734-4.129a3.887,3.887,0,0,0-1.511,2.184.211.211,0,1,1-.408-.107,4.339,4.339,0,0,1,.842-1.646,4.294,4.294,0,0,1,.833-.774.21.21,0,1,1,.243.343Z" transform="translate(-13.235 -11.935)" fill="#ff6464"/>
      <path id="Path_13348" data-name="Path 13348" d="M22.893,32.465l-.394.151-2.522.97-.394.151a1.674,1.674,0,0,0,.807.751,1.706,1.706,0,0,0,1.3.031l.155-.059a1.707,1.707,0,0,0,.947-.9A1.678,1.678,0,0,0,22.893,32.465Z" transform="translate(-15.761 -20.102)" fill="#ff6464"/>
    </g>
  </g>
</svg>
