<svg xmlns="http://www.w3.org/2000/svg" width="99.911" height="70.525" viewBox="0 0 99.911 70.525">
  <g id="Al-Ahsa-Chamber-01" transform="translate(-104.2 -220.5)">
    <g id="Group_10901" data-name="Group 10901" transform="translate(104.2 220.5)">
      <path id="Path_13722" data-name="Path 13722" d="M112.724,240.485l16.421-16.131a5.581,5.581,0,0,1,7.781,0l16.408,16.131a5.345,5.345,0,0,1,0,7.643l-16.408,16.13a5.581,5.581,0,0,1-7.781,0l-16.421-16.13a5.367,5.367,0,0,1,0-7.643Z" transform="translate(-110.252 -222.488)" fill="#57a166" fill-rule="evenodd"/>
      <path id="Path_13723" data-name="Path 13723" d="M240.406,340.95a46.074,46.074,0,0,1-12.233,5.07c7.164-3.784,11.981-9.081,13.823-17.417l-3.266-3.2A25.228,25.228,0,0,1,214.4,349.047l4.994,4.906a5.581,5.581,0,0,0,7.781,0l13.23-13Z" transform="translate(-200.502 -312.17)" fill-rule="evenodd"/>
      <path id="Path_13724" data-name="Path 13724" d="M323.5,368.217a46.075,46.075,0,0,0,12.233-5.07l3.191-3.14a5.345,5.345,0,0,0,0-7.643l-1.6-1.564c-1.829,8.324-6.646,13.633-13.823,17.417Z" transform="translate(-295.842 -334.367)" fill="#57a166" fill-rule="evenodd"/>
      <path id="Path_13725" data-name="Path 13725" d="M221.19,279.489l-.416,3.784-2.522.151-.643,1.993,2.157,1.438a22.189,22.189,0,0,1-1.879,3.191l-2.775-.441-1.148,1.564,1.551,1.576a14.418,14.418,0,0,1-3.14,2.636l-1.841-1.375-2.005.946.53,2.018a10.82,10.82,0,0,1-3.973,1.047l-.832-1.778-2.232.164-.719,1.955c-.454,0-1.047-.025-1.5-.063l1.829,1.791a25.218,25.218,0,0,0,24.328-23.647l-7.151-7.037-2.283,1.337.681,1.64,2.7-.1a19,19,0,0,1,.946,3.632l-2.3.959.177,1.917,2.459.706Z" transform="translate(-187.743 -263.233)" fill="#fff" fill-rule="evenodd"/>
      <path id="Path_13726" data-name="Path 13726" d="M189.46,233.076c.1-2.018.631-7.6,2.421-8.9a5.573,5.573,0,0,0-7.6.164l-8.45,8.3a21.937,21.937,0,0,0-1.413,3.418,10.909,10.909,0,0,1,1.324-1.324,13.033,13.033,0,0,0-1.539,5.12,7.083,7.083,0,0,1,.858-1.614,13.563,13.563,0,0,0,.189,5.574A13.757,13.757,0,0,1,175.9,240a2.974,2.974,0,0,0,.681,1.4,10.864,10.864,0,0,1,.454-4.427l.479,2.081a11.484,11.484,0,0,1,.908-4.477,7.131,7.131,0,0,0,.454,2.018,10.735,10.735,0,0,1,1.16-4.7,6.115,6.115,0,0,0-.1,2.623,14.9,14.9,0,0,1,1.7-4.477,41.119,41.119,0,0,0-1.829,7.113,18.875,18.875,0,0,1,2.031-2.724c-1.236,4.023-1.728,7.2-1.387,9.6a13.816,13.816,0,0,1,1.1-3.128,24.461,24.461,0,0,0,1.816,9.926,25.352,25.352,0,0,1,.151-7,5.594,5.594,0,0,0,1.589,2.333,19.733,19.733,0,0,1-.378-8.046l1.425,3.607c-.29-3.279-.29-6.192.429-8.261a12.523,12.523,0,0,0,1.362,3.493c-.252-3.443-.151-6.52.82-8.753a11.714,11.714,0,0,0,.694,4.881Z" transform="translate(-165.372 -222.47)" fill="#fff" fill-rule="evenodd"/>
      <path id="Path_13727" data-name="Path 13727" d="M110.677,238.3,127.1,222.165a5.806,5.806,0,0,1,4.086-1.665h0a5.784,5.784,0,0,1,4.086,1.665L151.678,238.3h0l.063.063h0a5.592,5.592,0,0,1,1.614,3.96,5.668,5.668,0,0,1-1.614,3.96h0l-.063.063h0l-16.408,16.13a5.739,5.739,0,0,1-4.086,1.652h0a5.784,5.784,0,0,1-4.086-1.665l-16.421-16.118h0l-.063-.063h0a5.592,5.592,0,0,1-1.614-3.96,5.668,5.668,0,0,1,1.614-3.96h0l.063-.063Zm16.812-15.727L111.068,238.7h0l-.063.063h0a5.086,5.086,0,0,0,0,7.113h0l.063.063h0l16.408,16.13a5.262,5.262,0,0,0,3.7,1.5h0a5.284,5.284,0,0,0,3.7-1.5l16.408-16.13h0l.063-.063h0a5.086,5.086,0,0,0,0-7.113h0l-.063-.063h0l-16.408-16.131a5.262,5.262,0,0,0-3.7-1.5h0a5.233,5.233,0,0,0-3.683,1.5Z" transform="translate(-108.395 -220.5)" fill="#57a166"/>
      <path id="Path_13728" data-name="Path 13728" d="M191.461,606.077h3.191c1.312-4.124,3.582-4.729,6.924-4.275l.921,1.766c-2.913-.492-4.906-.429-5.612,2.5h6.306l.921,2.094h-12.65a3.794,3.794,0,0,1-3.544,3.7l-1.589-1.211c1.665-.378,2.989-.643,3-2.6l.038-4.364,2.081.013.013,2.384Zm-20.431-8.324a1.11,1.11,0,1,0,1.11,1.11,1.1,1.1,0,0,0-1.11-1.11Zm2.56,0a1.11,1.11,0,1,1-1.11,1.11,1.1,1.1,0,0,1,1.11-1.11Zm24.871,0a1.11,1.11,0,1,1-1.11,1.11,1.1,1.1,0,0,1,1.11-1.11Zm-15.361,0a1.11,1.11,0,1,1-1.11,1.11,1.1,1.1,0,0,1,1.11-1.11Zm-16.282,7.391c.921-2.308,2.194-2.989,4.048-2.989l3.266-.025v3.985h3.544c.946-3.178,2.409-4.528,4.427-4.919l4.124.025v6.937H165.481a15.416,15.416,0,0,0,1.337-3.014Zm17.089-2.094c-2.131-.076-3.279.492-3.859,3.052h3.859v-3.052Zm-12.032.82c-1.425-.05-2.623.088-3.2,2.245h3.2V603.87Zm-25.98-7.2c1.387-2.194,2.976-2.762,4.212-2.194l.984.933c-1.778-.177-3.014.076-3.342,1.261h2.964l.114,2.195a3.853,3.853,0,0,0-1.261-.971H145.4l.492-1.223Zm-40.988,9.421c1.993-3.872,4.528-4.893,6.306-3.884l1.4,1.665c-2.548-.3-4.326.139-4.805,2.22h4.023l-.126,3.784a4.608,4.608,0,0,0-1.526-1.614H104.2l.706-2.169Zm11.477-10.077h-2.6v12.246h7.227a6.75,6.75,0,0,0,3.241-.958,1.424,1.424,0,0,0,1.148.958h1.261a3.233,3.233,0,0,0,1.766-1.173,3.355,3.355,0,0,0,1.791,1.148l17.354.025c-1.539-1.539-2.207-5.978-4.742-5.978l-4.439-.151-.731,1.829c2.245.227,5.3-.719,6.066,2.144H133.472v-3.834h-2.6v3.821h-2.043v-3.834h-2.6l-.013,3.834h-1.942v-3.834h-2.6v3.834H116.4V596.013Zm39.223,0h-2.6v11.8c-1.312-.631-2.043-1.236-2.043-2.812l-.227-5.991-2.371.454.227,5.574a4.134,4.134,0,0,0,3.3,4.048l1.463-.858h2.245V596.013Zm4.036,0h-2.6v12.246h2.6V596.013Z" transform="translate(-104.2 -547.13)" fill="#57a166" fill-rule="evenodd"/>
      <path id="Path_13729" data-name="Path 13729" d="M110.467,739.139h.933l1.867,4.856h-.958l-.378-1h-1.98l-.391,1H108.6l1.867-4.856Zm93.933,0h.984a3.439,3.439,0,0,1,1.148.139,1.2,1.2,0,0,1,.555.479,1.446,1.446,0,0,1,.2.782,1.343,1.343,0,0,1-.227.795,1.388,1.388,0,0,1-.694.492l1.148,2.157h-1.009l-1.1-2.056h-.088v2.056H204.4v-4.843Zm.921,1.892h.29a1.159,1.159,0,0,0,.605-.114.417.417,0,0,0,.164-.378.43.43,0,0,0-.088-.277.4.4,0,0,0-.214-.164,1.56,1.56,0,0,0-.5-.05h-.252v.984Zm-7.138-1.892h2.648v.908H199.1v.883h1.728v.883H199.1v1.274h1.728v.908h-2.648v-4.856Zm-6.583,4.843v-4.855h.757a3.646,3.646,0,0,1,.971.088,1.28,1.28,0,0,1,.694.429,1.205,1.205,0,0,1,.139,1.249,1.307,1.307,0,0,1-.378.429,1.6,1.6,0,0,1,.643.517,1.3,1.3,0,0,1,.2.731,1.417,1.417,0,0,1-.757,1.249,2.073,2.073,0,0,1-.921.164Zm.933-3.96v1.022h.2a.8.8,0,0,0,.5-.139.488.488,0,0,0,.164-.391.467.467,0,0,0-.151-.366.71.71,0,0,0-.467-.139h-.252Zm0,1.841v1.249h.227a1.352,1.352,0,0,0,.769-.151.481.481,0,0,0,.2-.416.556.556,0,0,0-.24-.492,1.256,1.256,0,0,0-.782-.177h-.177Zm-9.194-2.724h.908l1.122,3.38,1.135-3.38h.9l.82,4.856h-.9l-.517-3.065-1.034,3.065h-.82l-1.022-3.065-.53,3.065h-.9l.832-4.856Zm-6.634,0h.933l1.867,4.856h-.959l-.378-1h-1.98l-.391,1h-.958l1.867-4.856Zm.479,1.286-.643,1.665h1.286l-.643-1.665Zm-9.207-1.286h.933v1.829h1.627v-1.829h.933v4.856h-.933v-2.131H168.91v2.131h-.933v-4.856Zm-3.456.858-.643.618a1.993,1.993,0,0,0-1.488-.694,1.636,1.636,0,0,0-1.652,1.652,1.73,1.73,0,0,0,.214.858,1.49,1.49,0,0,0,.593.593,1.766,1.766,0,0,0,.858.214,1.724,1.724,0,0,0,.731-.151,2.525,2.525,0,0,0,.731-.542l.631.656a3.305,3.305,0,0,1-1.022.732,2.705,2.705,0,0,1-1.1.2,2.509,2.509,0,0,1-1.854-.719,2.48,2.48,0,0,1-.719-1.841,2.566,2.566,0,0,1,.328-1.286,2.4,2.4,0,0,1,.933-.908,2.642,2.642,0,0,1,1.312-.34,2.87,2.87,0,0,1,1.16.252,2.488,2.488,0,0,1,.984.706Zm-15.172-.858h.933l1.867,4.856h-.959l-.378-1h-1.98l-.391,1h-.958l1.867-4.856Zm.467,1.286-.643,1.665h1.286l-.643-1.665Zm-5.574-.631-.681.605a.983.983,0,0,0-.731-.5.485.485,0,0,0-.3.1.282.282,0,0,0-.113.214.3.3,0,0,0,.088.227,5.764,5.764,0,0,0,.681.618c.353.29.568.479.643.555a1.763,1.763,0,0,1,.391.542,1.425,1.425,0,0,1,.114.568,1.267,1.267,0,0,1-.416.984,1.478,1.478,0,0,1-1.072.391,1.62,1.62,0,0,1-.9-.252,2,2,0,0,1-.656-.795l.769-.467c.227.429.5.643.807.643a.626.626,0,0,0,.4-.139.394.394,0,0,0,.164-.315.513.513,0,0,0-.126-.328,3.2,3.2,0,0,0-.542-.5,5.425,5.425,0,0,1-1.022-1,1.3,1.3,0,0,1-.227-.706,1.125,1.125,0,0,1,.391-.87,1.324,1.324,0,0,1,.946-.366,1.513,1.513,0,0,1,.694.164,3.323,3.323,0,0,1,.694.63Zm-9.787-.656h.933v1.829h1.627v-1.829h.933v4.856h-.933v-2.131h-1.627v2.131h-.933v-4.856Zm-6.167,0h.933l1.867,4.856h-.958l-.378-1h-1.98l-.391,1h-.958l1.867-4.856Zm.467,1.286-.643,1.665H129.4l-.643-1.665Zm-12.12-1.286h.921v3.973H118.9v.883h-2.27v-4.856Zm-5.688,1.286-.643,1.665h1.286l-.643-1.665Z" transform="translate(-108.045 -673.608)" fill="#57a166" fill-rule="evenodd"/>
    </g>
  </g>
</svg>
