<svg xmlns="http://www.w3.org/2000/svg" xmlns:xlink="http://www.w3.org/1999/xlink" width="56.68" height="71.662" viewBox="0 0 56.68 71.662">
  <defs>
    <linearGradient id="linear-gradient" y1="0.5" x2="1" y2="0.5" gradientUnits="objectBoundingBox">
      <stop offset="0" stop-color="#2596ce"/>
      <stop offset="0.031" stop-color="#1d93ce"/>
      <stop offset="0.221" stop-color="#397ebb"/>
      <stop offset="0.626" stop-color="#7e488a"/>
      <stop offset="1" stop-color="#c4125a"/>
    </linearGradient>
    <clipPath id="clip-path">
      <path id="Path_13805" data-name="Path 13805" d="M293.133,154.3a5.027,5.027,0,0,1-1.159.294,4.854,4.854,0,0,1-4.048-1.38c-2.162-2.107-8.887-6.89-19,2.033,0,0-5.336,5.593-6.541,8.325a2.413,2.413,0,0,0,.322,2.291s3.045,6.1,8.261,9.531c0,0,7.921-22.115,17.368-19.466a6.148,6.148,0,0,1,3,2l1.224,1.463s.7.828,3.625-.064c0,0,11.37-3.937,10.864-15.878,0,0-.193-4.765-4.066-5.842,0-.009,8.132,8.252-9.853,16.7" transform="translate(-262.236 -137.6)"/>
    </clipPath>
    <linearGradient id="linear-gradient-2" y1="0.5" x2="1" y2="0.5" gradientUnits="objectBoundingBox">
      <stop offset="0" stop-color="#f8ce71"/>
      <stop offset="1" stop-color="#33aa81"/>
    </linearGradient>
    <linearGradient id="linear-gradient-3" y1="0.5" x2="1" y2="0.5" gradientUnits="objectBoundingBox">
      <stop offset="0" stop-color="#201a17"/>
      <stop offset="0.574" stop-color="#201a17"/>
      <stop offset="0.798" stop-color="#201a17"/>
      <stop offset="1" stop-color="#201a17"/>
    </linearGradient>
    <linearGradient id="linear-gradient-4" y1="0.5" x2="1" y2="0.5" gradientUnits="objectBoundingBox">
      <stop offset="0" stop-color="#efb75e"/>
      <stop offset="0.005" stop-color="#efb75e"/>
      <stop offset="0.482" stop-color="#de4f61"/>
      <stop offset="1" stop-color="#671f40"/>
    </linearGradient>
    <linearGradient id="linear-gradient-6" x1="0" y1="0.5" x2="1" y2="0.5" xlink:href="#linear-gradient-3"/>
    <linearGradient id="linear-gradient-7" x1="0.118" y1="0.541" x2="0.572" y2="0.498" xlink:href="#linear-gradient-3"/>
  </defs>
  <g id="Ramadan-Season-01" transform="translate(-187.453 -116.305)">
    <path id="Path_13785" data-name="Path 13785" d="M293.133,154.3a5.027,5.027,0,0,1-1.159.294,4.854,4.854,0,0,1-4.048-1.38c-2.162-2.107-8.887-6.89-19,2.033,0,0-5.336,5.593-6.541,8.325a2.413,2.413,0,0,0,.322,2.291s3.045,6.1,8.261,9.531c0,0,7.921-22.115,17.368-19.466a6.148,6.148,0,0,1,3,2l1.224,1.463s.7.828,3.625-.064c0,0,11.37-3.937,10.864-15.878,0,0-.193-4.765-4.066-5.842,0-.009,8.132,8.252-9.853,16.7" transform="translate(-67.904 -19.336)" fill="url(#linear-gradient)"/>
    <g id="Group_10911" data-name="Group 10911" transform="translate(194.333 118.264)">
      <g id="Group_10910" data-name="Group 10910" transform="translate(0 0)" clip-path="url(#clip-path)">
        <path id="Path_13786" data-name="Path 13786" d="M464.256,272.993a11.666,11.666,0,0,0-1.656-.193c.074.037.156.064.221.092A1.862,1.862,0,0,0,464.256,272.993Z" transform="translate(-444.168 -260.362)" fill="#fff"/>
        <path id="Path_13787" data-name="Path 13787" d="M275.256,394.472c.018.083.4.589.432.451a5.66,5.66,0,0,0-.064-1.886.055.055,0,0,0-.009-.037c-.184.248-.359.488-.515.727C275.146,393.984,275.2,394.233,275.256,394.472Z" transform="translate(-273.917 -369.505)" fill="#fff"/>
        <path id="Path_13788" data-name="Path 13788" d="M509.854,288.872a3.83,3.83,0,0,1,.938-1.6,10.3,10.3,0,0,0-1.1-.672,2.545,2.545,0,0,0-.313,1.766C509.394,288.467,509.808,289.029,509.854,288.872Z" transform="translate(-486.601 -272.893)" fill="#fff"/>
        <path id="Path_13789" data-name="Path 13789" d="M551.783,319.5a6.017,6.017,0,0,0-.883,1.748,6.148,6.148,0,0,1,.892.432c.028-.064.055-.129.083-.184a8.735,8.735,0,0,1,1.141-1.7A5.122,5.122,0,0,1,551.783,319.5Z" transform="translate(-524.345 -302.766)" fill="#fff"/>
        <path id="Path_13790" data-name="Path 13790" d="M574.47,313.311a7.209,7.209,0,0,1-.874.754,8.386,8.386,0,0,1-2,1.177,6.159,6.159,0,0,1,.635.662h0a9.411,9.411,0,0,0,1.7-1.187c-.166.368-.35.727-.524,1.058-.166.3-.35.607-.534.892l.58.7a.974.974,0,0,0,.423.23.281.281,0,0,0-.064-.046c.018.009.037.028.064.046h.009c.3-.58.58-1.177.819-1.757a7.618,7.618,0,0,0,.708-4.241c-.239.12-.478.239-.727.359A5.191,5.191,0,0,1,574.47,313.311Z" transform="translate(-543.141 -295.593)" fill="#fff"/>
        <path id="Path_13791" data-name="Path 13791" d="M344.324,458.85a.283.283,0,0,0-.009-.092.049.049,0,0,0-.055-.055c-.046-.009-.083-.009-.129-.018-.239-.037-.929.58-.828.828A4.783,4.783,0,0,0,345,461.5l-.727-.055c-.4-.028-1.279.791-1.27,1.187.009,1.132.018,2.263.037,3.4.4.322.828.626,1.26.911,0,0,.147-.414.423-1.122-.1.028-.2.046-.3.074q.014-.345,0-.69c-.018-.8-.028-1.6-.046-2.4.524.037,1.058.064,1.582.1.294-.644.616-1.343.975-2.07-.166-.083-.34-.175-.506-.267A9.428,9.428,0,0,1,344.324,458.85Z" transform="translate(-335.57 -429.145)" fill="#fff"/>
        <path id="Path_13792" data-name="Path 13792" d="M632.854,164.484c.064.037.138.064.2.1a9.144,9.144,0,0,0-.313-1.536,9.107,9.107,0,0,1-.745-.589c.129-.12.258-.248.386-.377-.046-.11-.1-.221-.156-.331-.166.156-.322.313-.488.469-.4-.4-.837-.957-1.38-1.021a7,7,0,0,1,.423,1.6c.064.064.12.129.184.193-.046.055-.092.11-.147.166.009.129.018.267.028.4.12-.11.23-.23.35-.34.12.11.23.221.35.331a7.28,7.28,0,0,0,.957.727c-.212.469-.451.92-.708,1.371-.064.12-.138.239-.2.359-.294-.212-.589-.432-.883-.635a.2.2,0,0,1-.046-.037c-.028.12-.055.23-.092.35.267.23.543.46.819.681-.451.764-.92,1.518-1.389,2.272-.515.819-1,1.647-1.453,2.493a10.989,10.989,0,0,1-1.426-.414c-.147.129-.294.267-.451.4a7.749,7.749,0,0,0,1.555.662,16.2,16.2,0,0,0-.938,2.346,6.3,6.3,0,0,1-1.27-.506,8.194,8.194,0,0,1-1.067-.7c-.11-.083-.212-.166-.313-.248-.12.083-.23.156-.359.239.2.193.4.359.524.469a9.169,9.169,0,0,0,2.272,1.518c-.009.046-.018.083-.028.129a13.172,13.172,0,0,0-.3,1.913,8.79,8.79,0,0,0-4.1-3.008c-.423.248-.874.5-1.343.745a8.716,8.716,0,0,1,3.487,2.392c-.23,0-.451.009-.681.009-.294,0-1.444,1.1-1.205,1.214a1.324,1.324,0,0,1,.552,1.739,1.842,1.842,0,0,1-.092.239c.331-.156.718-.359,1.15-.6.074-.166.147-.331.212-.506a2.579,2.579,0,0,0,.156-.92l.828-.028a2.293,2.293,0,0,0,1-.708c-.009.239-.018.488-.009.727.258-.193.506-.4.764-.607a15.921,15.921,0,0,1,.359-2.465,4.649,4.649,0,0,0,1.913.166,15.685,15.685,0,0,0,1.453-2.125c-.083.055-.166.12-.248.175a4.535,4.535,0,0,1-2.364.9,3.329,3.329,0,0,1-.524-.009,14.776,14.776,0,0,1,.874-2.3c.745.175,1.518.294,2.263.451.12.028.239.055.359.092.1-.2.193-.4.285-.607a16.656,16.656,0,0,0-2.576-.616c.506-.984,1.076-1.932,1.637-2.879.331-.552.653-1.113.957-1.683.386.285.773.57,1.141.856.018-.166.037-.322.046-.488l-.994-.745c.083-.175.175-.34.258-.515Q632.592,165.16,632.854,164.484Z" transform="translate(-588.269 -159.029)" fill="#fff"/>
        <path id="Path_13793" data-name="Path 13793" d="M330.078,340.374c-.12-.074-.506.3-.488.423.129.938,1.132,1.187,1.923,1.371a7.494,7.494,0,0,0,3.8.074c.064-.018.423-.331.313-.368a6.473,6.473,0,0,0-1.463-.064,10.129,10.129,0,0,1-1.582-.156,1.065,1.065,0,0,0,.423-.46.312.312,0,0,0,0-.285.194.194,0,0,0-.037-.055,1.216,1.216,0,0,0,.193-.267c.1-.239.156-.35-.046-.543a1.826,1.826,0,0,0-.635-.368.831.831,0,0,0-.7.037c.037-.1.064-.193.11-.294.11.009.221.018.331.037a7.215,7.215,0,0,1,.984.212,2.992,2.992,0,0,0,1.1.046c-.009.064-.009.12-.018.184,0,.018.046-.018.055-.018a.114.114,0,0,0,.055-.074c0-.037-.009-.074-.009-.1a.157.157,0,0,0,.064-.009.07.07,0,0,0,.037-.018,1.657,1.657,0,0,0,.037.478c.028.12.34-.212.368-.276a5.475,5.475,0,0,0,.23-2.981,6.509,6.509,0,0,0-.626-2.015c.028-.322.018-.911-.267-1.021-.377-.156-1.5,1.039-1.279,1.187.4.276.193,1.251.064,1.628a1.127,1.127,0,0,1-.92.81c-1.426.4-2.668-.46-3.79-1.187-.2-.129-.865.515-.782.727.653,1.748,3.027,2.1,4.5,1.288a5.426,5.426,0,0,0,2.107-2.143c.028-.064.055-.12.083-.184a10.728,10.728,0,0,1,.285,1.417,8.4,8.4,0,0,1,.055,1.444c0,.092-.009.184-.018.276a.635.635,0,0,0-.294-.294,3.183,3.183,0,0,0-.819-.276,1.578,1.578,0,0,0-1.647.285c-.037.037-.239.221-.175.285.046.055.018.175.055.239-.2.313-.377.644-.552.957-.037.064-.129.212-.009.239a1.972,1.972,0,0,1,.552.193,3.385,3.385,0,0,1,.35.285,2.419,2.419,0,0,1-.451-.037A3.682,3.682,0,0,1,330.078,340.374Zm2.208,1.04a1.349,1.349,0,0,0-.147.175,3.021,3.021,0,0,1-.4-.083A2.163,2.163,0,0,0,332.286,341.414Z" transform="translate(-321.517 -315.794)" fill="#fff"/>
        <path id="Path_13794" data-name="Path 13794" d="M717.87,259.284c-.175-.092.129.386.175.423a3.1,3.1,0,0,0,1.6.81c.092-.23.184-.469.267-.708A3.668,3.668,0,0,1,717.87,259.284Z" transform="translate(-675.906 -248.079)" fill="#fff"/>
        <path id="Path_13795" data-name="Path 13795" d="M277.04,452.923c.028-.083-.258-.46-.322-.4q-.345.345-.718.69c.138.23.3.488.478.764A4.187,4.187,0,0,0,277.04,452.923Z" transform="translate(-274.734 -423.549)" fill="#fff"/>
        <path id="Path_13796" data-name="Path 13796" d="M381.974,284.084c.1-.092.193-.175.3-.258a2.275,2.275,0,0,0,.331-.488c.258-.35.58-.672.874-1,.57-.653,1.15-1.306,1.729-1.95a8.516,8.516,0,0,0,1.472-2.061,2.271,2.271,0,0,0-.377-2.272,3.526,3.526,0,0,0-3.3-1.463c.074-.1.156-.2.23-.3a6.565,6.565,0,0,0,.561-.69c.055-.1-.138-.368-.285-.5-.129.009-.248.018-.377.037a2.077,2.077,0,0,0-.377.276,3.23,3.23,0,0,1-.662.12,1.307,1.307,0,0,1-.046-.2c0-.009,0-.018-.009-.018-.156.028-.313.064-.469.1.009.046.018.092.028.129h-.12a1.693,1.693,0,0,1-.3-.028c-.193.055-.4.11-.589.175a3.691,3.691,0,0,0,.782.248c.11.018.212.037.322.046.018.11.037.221.055.34a5.221,5.221,0,0,1-1.251.5,12.991,12.991,0,0,0-3.579,1.536c-.221.138.552,1.205.856,1.131,1.435-.386,2.8-.975,4.232-1.361.046.34.083.681.129,1.021.009.092.322.451.34.359a6.365,6.365,0,0,0,.064-1.509,7.751,7.751,0,0,1,1.95-.184,3.619,3.619,0,0,1,.837.138,3.061,3.061,0,0,1,.478.193.323.323,0,0,1,.074.046c.138.7-.478,1.389-.9,1.858-.478.524-1,1.012-1.49,1.518-.331.34-.653.681-.957,1.049.009-.046.009-.092.018-.129a3.477,3.477,0,0,0-.156-1.766c-.083-.184-.929.6-.929.81-.018.506.037,1.021,0,1.527a5.06,5.06,0,0,1-.083.653c-.037.23-.175.506-.11.727.018.064.074.074.138.055a1.459,1.459,0,0,0-.083.285,13.463,13.463,0,0,1-.764-2.539c-.018-.074-.248-.294-.248-.258a7.717,7.717,0,0,0,.911,3.293c0,.028-.009.046-.009.074a1.7,1.7,0,0,0,.524.819c.138.212.285.423.442.626.046-.064.1-.138.156-.2A3.42,3.42,0,0,1,381.974,284.084Z" transform="translate(-366.329 -260.635)" fill="#fff"/>
        <path id="Path_13797" data-name="Path 13797" d="M283.106,362.754c.3.35.616.708.957,1.058a5.61,5.61,0,0,0,1.334-3.339,6.707,6.707,0,0,0-.644-2.879,9.344,9.344,0,0,0,.681-1.766c.028-.11-.331-.607-.423-.515a10.924,10.924,0,0,0-.92,1.039c-.028-.046-.064-.1-.092-.147-.1-.156-.2-.313-.313-.46.285-.386.534-.819.782-1.233a3.691,3.691,0,0,0,.7-1.729c0-.129-.276-.607-.432-.534-.46.2-.708.938-.948,1.352-.248.442-.524.874-.81,1.3-.092-.092-.175-.184-.276-.276a5.671,5.671,0,0,0-.8-.662c.5-.736,1.04-1.435,1.5-2.2a18.269,18.269,0,0,0,1.389-2.824c.046-.11-.285-.4-.3-.368-.46.911-.948,1.794-1.49,2.649a11.39,11.39,0,0,1-1.877,2.41c-.138.129.3.6.4.662a10.123,10.123,0,0,1,1.233.948,3.38,3.38,0,0,1-2.024,1.38c-.1.028.258.451.331.478.975.359,1.8-.35,2.392-1.049a4.394,4.394,0,0,1,.35.58.23.23,0,0,0,.037.064,28,28,0,0,1-1.978,2.567,3.621,3.621,0,0,1-.874.69c.23.34.488.708.764,1.095.028-.009.046-.009.074-.018.9-.3,1.546-1.325,2.088-2.051.166-.221.322-.46.469-.7a5.3,5.3,0,0,1-.037,2.217A5.688,5.688,0,0,1,283.106,362.754Z" transform="translate(-279.007 -329.158)" fill="#fff"/>
        <path id="Path_13798" data-name="Path 13798" d="M361.884,437.23c.12-.1.23-.239.221-.313a.888.888,0,0,0-.166-.4,2.475,2.475,0,0,0,.248-.064c.248-.092.681-.423.708-.708.046-.451-.34-.5-.7-.57a2.459,2.459,0,0,0-1.435.028,1.778,1.778,0,0,0-.616.46c-.018.018-.34.414-.239.478.1.175.5.2.773.239.074.055.156.129.239.2.248.23.423.589.7.764a.055.055,0,0,0,.037.009.694.694,0,0,0,.147.184,5.518,5.518,0,0,0,1.251.3c.11-.212.23-.432.35-.653A11.856,11.856,0,0,1,361.884,437.23Z" transform="translate(-350.903 -407.718)" fill="#fff"/>
        <path id="Path_13799" data-name="Path 13799" d="M333.768,317.567a2.272,2.272,0,0,1,1.251.57,2.415,2.415,0,0,1,.451.469,4.609,4.609,0,0,0,.4.442c.175.193.819-.561.846-.736a1.472,1.472,0,0,0-.248-1.187,1.853,1.853,0,0,0-1.021-.718,2.626,2.626,0,0,0-1.251-.064c-.451.359-.911.736-1.38,1.15,0,0-.083.083-.221.23A2.54,2.54,0,0,1,333.768,317.567Z" transform="translate(-326.127 -299.858)" fill="#fff"/>
        <path id="Path_13800" data-name="Path 13800" d="M489.749,280.684a2.775,2.775,0,0,0,1.279-2.079,10.66,10.66,0,0,0-1.086-.4,2.858,2.858,0,0,1-.239,2.337C489.6,280.647,489.547,280.8,489.749,280.684Z" transform="translate(-468.695 -265.266)" fill="#fff"/>
        <path id="Path_13801" data-name="Path 13801" d="M609.8,371.444a9.089,9.089,0,0,0,1.969-.4s.175-.055.469-.184a2.3,2.3,0,0,1-.248-.037A2.338,2.338,0,0,0,609.8,371.444Z" transform="translate(-577.826 -349.329)" fill="#fff"/>
        <path id="Path_13802" data-name="Path 13802" d="M297.223,341.862a13.683,13.683,0,0,1,1.8-2.373,7.051,7.051,0,0,0,.478-.589c-.681.745-1.7,1.877-2.7,3.091v.138C296.818,342.267,297.186,341.908,297.223,341.862Z" transform="translate(-293.62 -320.382)" fill="#fff"/>
        <path id="Path_13803" data-name="Path 13803" d="M489.643,316.847a2.557,2.557,0,0,0,.442-.948c.11-.515.083-1.159-.5-1.352-.184-.064-.708.469-.69.644a5.006,5.006,0,0,1,.092,1.481c-.092.469-.331.616-.69.846A9.148,9.148,0,0,1,489.643,316.847Z" transform="translate(-467.504 -298.264)" fill="#fff"/>
        <path id="Path_13804" data-name="Path 13804" d="M370.728,297.1c-.276.166-.552.331-.828.515.064.028.12.046.184.074C370.25,297.744,370.691,297.312,370.728,297.1Z" transform="translate(-359.996 -282.427)" fill="#fff"/>
      </g>
    </g>
    <path id="Path_13806" data-name="Path 13806" d="M293.133,154.3a5.027,5.027,0,0,1-1.159.294,4.854,4.854,0,0,1-4.048-1.38c-2.162-2.107-8.887-6.89-19,2.033,0,0-5.336,5.593-6.541,8.325a2.413,2.413,0,0,0,.322,2.291s3.045,6.1,8.261,9.531c0,0,7.921-22.115,17.368-19.466a6.148,6.148,0,0,1,3,2l1.224,1.463s.7.828,3.625-.064c0,0,11.37-3.937,10.864-15.878,0,0-.193-4.765-4.066-5.842,0-.009,8.132,8.252-9.853,16.7" transform="translate(-67.904 -19.336)" fill="none"/>
    <path id="Path_13807" data-name="Path 13807" d="M232.095,116.654s-2.41-1.656-7.286,2.245c0,0,4.572-1.95,4.406.294,0,0-.046,3.266-7.157,7.415,0,0-4.324,2.879-8.215-2.585,0,0-9.668-11.315-19.687-5.878a9.563,9.563,0,0,0-2.907,2.456,15.613,15.613,0,0,0-3.293,13.376s9.107-16.228,25.372-8.1a26.829,26.829,0,0,1,3.9,2.907s4.232,5.142,11.14-1.251C228.36,127.546,236.372,120.554,232.095,116.654Z" transform="translate(-0.094)" fill="url(#linear-gradient-2)"/>
    <g id="Group_10918" data-name="Group 10918" transform="translate(187.453 117.022)">
      <g id="Group_10914" data-name="Group 10914" transform="translate(0)">
        <path id="Path_13808" data-name="Path 13808" d="M609.485,130.6c-.092.055-.184.11-.285.175.129.166.267.322.4.478.12-.028.248-.055.368-.074C609.807,130.986,609.642,130.793,609.485,130.6Z" transform="translate(-570.402 -130.002)" fill="#fff"/>
        <path id="Path_13809" data-name="Path 13809" d="M605.776,132.9c-.092.055-.184.12-.276.184.092.129.193.248.294.368.12-.037.239-.064.359-.092C606.024,133.213,605.9,133.056,605.776,132.9Z" transform="translate(-567.042 -132.09)" fill="#fff"/>
        <path id="Path_13810" data-name="Path 13810" d="M596.831,139.747l-.12-.147c-.046.028-.083.064-.129.092l-.037.092c-.018.037-.028.074-.046.12.1-.037.221-.083.35-.129C596.849,139.766,596.84,139.756,596.831,139.747Z" transform="translate(-558.87 -138.174)" fill="#fff"/>
        <path id="Path_13811" data-name="Path 13811" d="M618.369,162.013l-.6-.4q-.51-.345-.994-.718c-.046.092-.092.193-.156.3.313.239.626.478.957.7l.129.083-.138.074a15.335,15.335,0,0,1-2.291.984c-.147.166-.3.331-.478.506a16.673,16.673,0,0,0,2.925-1.2Z" transform="translate(-575.487 -157.515)" fill="#fff"/>
        <path id="Path_13812" data-name="Path 13812" d="M620.254,125.83a1.921,1.921,0,0,1,.543.083c-.018-.018-.037-.028-.046-.046a11.712,11.712,0,0,1-.948-1.067c-.1.046-.2.1-.3.147A10.018,10.018,0,0,0,620.254,125.83Z" transform="translate(-579.755 -124.736)" fill="#fff"/>
        <path id="Path_13813" data-name="Path 13813" d="M532,227.657c.1.046.2.083.3.129a3.7,3.7,0,0,1,.837-1.343l2.41-2.41-.009-.184c0-.083-.009-.166-.009-.248-.1.064-.212.129-.322.193v.1l-2.3,2.318A3.839,3.839,0,0,0,532,227.657Z" transform="translate(-500.304 -214.447)" fill="#fff"/>
        <path id="Path_13814" data-name="Path 13814" d="M639.664,132.918c.386.322.791.626,1.205.911l.092.064.092-.064a14.253,14.253,0,0,0,2.107-1.729c.12-.12.239-.248.359-.377-.046-.11-.1-.212-.156-.322-.147.156-.294.313-.442.46a13.513,13.513,0,0,1-1.969,1.628,14.871,14.871,0,0,1-1.352-1.058,1.218,1.218,0,0,1,.055.469C639.674,132.9,639.664,132.909,639.664,132.918Z" transform="translate(-598.005 -130.728)" fill="#fff"/>
        <path id="Path_13815" data-name="Path 13815" d="M251.737,142.765l-.037.23.23-.037a16.169,16.169,0,0,0,3.7-1.049l.258-.11-.221-.175a15.784,15.784,0,0,1-2.594-2.6l-.175-.221-.11.258A16.243,16.243,0,0,0,251.737,142.765Zm1.242-3.321a13.309,13.309,0,0,0,1.076,1.187,14.8,14.8,0,0,0,1.187,1.067,15.97,15.97,0,0,1-3.137.883A16.806,16.806,0,0,1,252.979,139.444Z" transform="translate(-245.79 -137.448)" fill="#fff"/>
        <path id="Path_13816" data-name="Path 13816" d="M200.5,183.29a3.687,3.687,0,0,0,.147,1.012c.083-.11.166-.23.258-.35a3.107,3.107,0,0,1,.846-2.879l2.548-2.548-.009-.166a19.947,19.947,0,0,1,0-2.346v-.083l.083-.009a17.636,17.636,0,0,0,7.157-2.217l.046-.028.046.028a16.933,16.933,0,0,0,4.085,1.665,16.809,16.809,0,0,1,1.794.046,16.951,16.951,0,0,1-5.713-2l-.212-.12-.212.12a17.381,17.381,0,0,1-7.028,2.171l-.359.037-.018.359a20.584,20.584,0,0,0,0,2.383v.018l-2.438,2.447A3.421,3.421,0,0,0,200.5,183.29Z" transform="translate(-199.3 -168.774)" fill="#fff"/>
        <path id="Path_13817" data-name="Path 13817" d="M539.457,221.318v.018l-2.438,2.438a3.375,3.375,0,0,0-.819,1.306,3.114,3.114,0,0,0,.313.1,3.148,3.148,0,0,1,.736-1.178l2.548-2.548-.009-.166-.028-.69c-.11.064-.221.138-.331.2C539.438,220.986,539.447,221.152,539.457,221.318Z" transform="translate(-504.118 -211.723)" fill="#fff"/>
        <path id="Path_13818" data-name="Path 13818" d="M212.3,195.146c.147-.184.3-.368.469-.561a2.018,2.018,0,0,1,.46-.69l2.879-2.879-.028-.653c-.028-.46-.037-.92-.028-1.4a18.955,18.955,0,0,0,6.246-1.978c.515.267,1.04.515,1.573.736l.635-.11a17.817,17.817,0,0,1-2.134-.966l-.083-.046-.083.046a18.388,18.388,0,0,1-6.348,2.005l-.138.018v.138c-.009.534-.009,1.049.028,1.564l.028.506L213,193.656A2.379,2.379,0,0,0,212.3,195.146Z" transform="translate(-210.014 -180.85)" fill="#fff"/>
        <path id="Path_13819" data-name="Path 13819" d="M196.231,206.354a3.549,3.549,0,0,1,1.04-2.521l2.419-2.41-.009-.184c-.028-.672-.028-1.371,0-2.07l.028-.469-.469.028c-.681.037-1.371.037-2.07.009l-.184-.009-.506.506c-.12.258-.23.524-.34.81l.975-.975h.037c.7.028,1.4.028,2.1-.009l.1-.009-.009.1a19.934,19.934,0,0,0,0,2.1v.037l-2.3,2.318a3.862,3.862,0,0,0-1.141,2.751,3.924,3.924,0,0,0,.267,1.426c.074-.1.147-.221.23-.331A3.941,3.941,0,0,1,196.231,206.354Z" transform="translate(-195.123 -191.837)" fill="#fff"/>
        <path id="Path_13820" data-name="Path 13820" d="M638.74,146.375a14.939,14.939,0,0,0,2.613-2.051c-.009-.147-.018-.285-.037-.423a.46.46,0,0,0-.064.074,14.354,14.354,0,0,1-2.677,2.116l-.046.028-.046-.028a13.383,13.383,0,0,1-1.453-1.03c-.037.1-.083.2-.129.322a14.929,14.929,0,0,0,1.407.994l.221.138Z" transform="translate(-595.554 -142.079)" fill="#fff"/>
        <path id="Path_13821" data-name="Path 13821" d="M550.793,214.362l.028.5-2.787,2.778a2.212,2.212,0,0,0-.534.828c.11.018.221.037.34.046a1.994,1.994,0,0,1,.432-.635l2.889-2.889-.037-.644c-.028-.442-.037-.883-.028-1.343-.11.074-.221.156-.331.23C550.766,213.607,550.766,213.984,550.793,214.362Z" transform="translate(-514.378 -204.822)" fill="#fff"/>
        <path id="Path_13822" data-name="Path 13822" d="M630.164,171.218l-.028-.018a.092.092,0,0,1-.037.046Z" transform="translate(-589.379 -166.867)" fill="#fff"/>
        <path id="Path_13823" data-name="Path 13823" d="M346.2,140.491a16.145,16.145,0,0,1-1.38,1.223l-.221.175.258.11a16.3,16.3,0,0,0,3.7,1.049l.23.037-.037-.23a16.169,16.169,0,0,0-1.049-3.7l-.11-.258-.175.221A15.75,15.75,0,0,1,346.2,140.491Zm2.189,2.189a15.969,15.969,0,0,1-3.137-.883c.414-.34.81-.7,1.187-1.067h0a14.792,14.792,0,0,0,1.067-1.187A15.792,15.792,0,0,1,348.39,142.681Z" transform="translate(-330.144 -137.538)" fill="#fff"/>
        <path id="Path_13824" data-name="Path 13824" d="M593.845,186.7l-.083.046a18.416,18.416,0,0,1-5.483,1.877c-.184.138-.377.285-.58.423a18.661,18.661,0,0,0,6.145-1.969c.4.212.791.4,1.205.58.064-.092.12-.184.184-.276-.451-.193-.883-.4-1.306-.626Z" transform="translate(-550.88 -180.941)" fill="#fff"/>
        <path id="Path_13825" data-name="Path 13825" d="M328.792,135.174l.524.055-.055-.524a18.029,18.029,0,0,0-1.288-5.1c-.147-.074-.294-.138-.451-.2a17.5,17.5,0,0,1,1.417,5.336l.009.11-.11-.009a17.132,17.132,0,0,1-6.246-1.849l-.138-.074.129-.083a15.075,15.075,0,0,0,3.974-3.818c-.11-.037-.212-.083-.322-.12a15.464,15.464,0,0,1-1.49,1.757,15.024,15.024,0,0,1-2.346,1.9l-.6.4.635.331A17.687,17.687,0,0,0,328.792,135.174Z" transform="translate(-309.441 -128.458)" fill="#fff"/>
        <path id="Path_13826" data-name="Path 13826" d="M402.864,198.509l-.064-.009a.157.157,0,0,0,.064.009Z" transform="translate(-382.99 -191.656)" fill="#fff"/>
        <path id="Path_13827" data-name="Path 13827" d="M212.77,160.268h.138l.018-.138a18.925,18.925,0,0,1,.5-2.53c-.156.166-.3.34-.442.515a.161.161,0,0,1-.037.046q-.207.883-.331,1.794c-.313.009-.616,0-.92-.009-.064.1-.129.212-.193.322C211.914,160.268,212.328,160.277,212.77,160.268Z" transform="translate(-209.288 -154.518)" fill="#fff"/>
        <path id="Path_13828" data-name="Path 13828" d="M277.73,131.3l.221.138.221-.138a14.844,14.844,0,0,0,2.732-2.171,15.448,15.448,0,0,0,1.472-1.72l-.331-.11a15.056,15.056,0,0,1-1.371,1.591A14.577,14.577,0,0,1,278,131.007l-.046.028-.046-.028a14.979,14.979,0,0,1-2.677-2.116,14.634,14.634,0,0,1-1.306-1.509c-.11.037-.212.083-.322.12a15.619,15.619,0,0,0,1.4,1.619A14.515,14.515,0,0,0,277.73,131.3Z" transform="translate(-265.675 -127.006)" fill="#fff"/>
        <path id="Path_13829" data-name="Path 13829" d="M188.894,291.974s.055-.1.166-.285a4.336,4.336,0,0,1-.46-1.389A16.431,16.431,0,0,0,188.894,291.974Z" transform="translate(-188.495 -275.011)" fill="#fff"/>
        <path id="Path_13830" data-name="Path 13830" d="M189.877,211.131c.239.009.469.009.708.009,0,.239,0,.478.009.708l-1.987,1.978a4.969,4.969,0,0,0-1.132,1.757,14.972,14.972,0,0,0,.018,1.923c0-.055-.009-.11-.009-.166a4.591,4.591,0,0,1,1.352-3.275l2.079-2.079v-.074c-.009-.3-.009-.616-.009-.938v-.166h-.166c-.313,0-.626,0-.929-.009h-.074l-1.775,1.775c-.055.2-.1.4-.147.607.028-.028.055-.046.083-.074Z" transform="translate(-187.453 -202.824)" fill="#fff"/>
        <path id="Path_13831" data-name="Path 13831" d="M238.3,136.319l.524-.055a17.375,17.375,0,0,0,6.366-1.886l.635-.331-.6-.4a15.026,15.026,0,0,1-2.346-1.9,15.464,15.464,0,0,1-1.417-1.647c-.1.046-.212.083-.313.129a14.66,14.66,0,0,0,1.5,1.748,15.661,15.661,0,0,0,2.392,1.95l.129.083-.138.074a17.258,17.258,0,0,1-6.246,1.849l-.11.009.009-.11a17.7,17.7,0,0,1,1.26-5,5.229,5.229,0,0,0-.478.3,18.224,18.224,0,0,0-1.113,4.655Z" transform="translate(-233.622 -129.548)" fill="#fff"/>
        <path id="Path_13832" data-name="Path 13832" d="M406.957,199.15h.037l.478.478c.248.092.5.184.754.285l-1.1-1.095-.184.009c-.681.028-1.389.028-2.07-.009l-.469-.018v.009c.524.092,1.058.221,1.61.368C406.332,199.168,406.654,199.168,406.957,199.15Z" transform="translate(-384.442 -191.928)" fill="#fff"/>
        <path id="Path_13833" data-name="Path 13833" d="M203.677,147.606h.018a22.864,22.864,0,0,0,2.383,0l.368-.018.037-.359a18,18,0,0,1,1.086-4.728c-.166.12-.322.239-.488.368a18.527,18.527,0,0,0-.938,4.333l-.009.083h-.083a19.954,19.954,0,0,1-2.346,0h-.055c-.12.23-.239.46-.35.7Z" transform="translate(-201.842 -140.807)" fill="#fff"/>
        <path id="Path_13834" data-name="Path 13834" d="M678.2,168.4l.239.1c.055-.138.1-.276.147-.4-.055.046-.1.092-.156.138Z" transform="translate(-633.055 -164.052)" fill="#fff"/>
        <path id="Path_13835" data-name="Path 13835" d="M612.308,173.42l-.212-.12-.212.12a17.179,17.179,0,0,1-3.56,1.509c-.166.156-.34.322-.524.488a17.063,17.063,0,0,0,4.259-1.711l.046-.028.046.028a15.888,15.888,0,0,0,1.729.856c.055-.1.11-.193.156-.294A13.086,13.086,0,0,1,612.308,173.42Z" transform="translate(-569.131 -168.774)" fill="#fff"/>
        <path id="Path_13836" data-name="Path 13836" d="M521.894,237.214a4.5,4.5,0,0,1,1.049-1.628l1.086-1.086c-.184.046-.386.092-.6.129l-.727.727a4.859,4.859,0,0,0-1.1,1.683C521.692,237.094,521.793,237.149,521.894,237.214Z" transform="translate(-490.861 -224.344)" fill="#fff"/>
        <path id="Path_13837" data-name="Path 13837" d="M491.386,231.773a3.747,3.747,0,0,0,1.509-.616c-.12-.046-.248-.1-.368-.156a3.524,3.524,0,0,1-1.527.5Q491.193,231.621,491.386,231.773Z" transform="translate(-463.076 -221.166)" fill="#fff"/>
        <path id="Path_13838" data-name="Path 13838" d="M657.2,152.854c.055-.1.1-.193.147-.294-.432-.184-.846-.377-1.26-.589l-.138-.074.129-.083a16.973,16.973,0,0,0,1.959-1.536,4.151,4.151,0,0,0,.018-.478,15.362,15.362,0,0,1-2.162,1.729l-.6.4.635.331A13.294,13.294,0,0,0,657.2,152.854Z" transform="translate(-612.261 -147.436)" fill="#fff"/>
        <path id="Path_13839" data-name="Path 13839" d="M288.211,127.2l.092.064.092-.064a13.675,13.675,0,0,0,3.238-3.017c-.12-.028-.239-.055-.35-.083a14.929,14.929,0,0,1-1.012,1.141,13.417,13.417,0,0,1-1.969,1.628,14.028,14.028,0,0,1-1.969-1.628c-.35-.35-.672-.718-.984-1.095-.12.028-.23.064-.35.1a13.964,13.964,0,0,0,1.095,1.233A14.764,14.764,0,0,0,288.211,127.2Z" transform="translate(-276.026 -124.1)" fill="#fff"/>
        <path id="Path_13840" data-name="Path 13840" d="M505.17,235.564c-.138-.018-.276-.037-.423-.064a4.635,4.635,0,0,1-1.647.948c.1.083.193.166.285.248A5.078,5.078,0,0,0,505.17,235.564Z" transform="translate(-474.063 -225.252)" fill="#fff"/>
        <path id="Path_13841" data-name="Path 13841" d="M391.416,142.675l.368.018a20.587,20.587,0,0,0,2.383,0h.018l1.27,1.27c.267.11.543.23.819.35l-1.959-1.959-.166.009c-.754.037-1.545.037-2.346,0h-.083l-.009-.083a18.169,18.169,0,0,0-1.168-4.958l-.442-.221a17.86,17.86,0,0,1,1.279,5.207Z" transform="translate(-371.458 -135.904)" fill="#fff"/>
        <path id="Path_13842" data-name="Path 13842" d="M406.465,149.181h.138q.814.014,1.573-.028l.5-.028,2.778,2.787a2.4,2.4,0,0,0,2.318.616c-.11-.083-.221-.175-.331-.267a1.6,1.6,0,0,1-.294.028,2.03,2.03,0,0,1-1.463-.607l-2.889-2.889-.644.037c-.451.028-.92.037-1.4.028a19.255,19.255,0,0,0-.718-3.2c-.147-.083-.285-.175-.432-.258a18.915,18.915,0,0,1,.837,3.643Z" transform="translate(-385.532 -143.441)" fill="#fff"/>
        <path id="Path_13843" data-name="Path 13843" d="M484.7,228.713l.469.331a3.361,3.361,0,0,0,1.545-.46c-.12-.055-.23-.12-.35-.184a3.084,3.084,0,0,1-1.389.322C484.884,228.722,484.792,228.722,484.7,228.713Z" transform="translate(-457.355 -218.805)" fill="#fff"/>
      </g>
    </g>
    <path id="Path_13844" data-name="Path 13844" d="M383.043,535.6c-.018,0-.064.046-.055.046s.064-.046.055-.046" transform="translate(-177.546 -380.723)" fill="#fff"/>
    <path id="Path_13845" data-name="Path 13845" d="M628.028,183.579s.635,2.475,1.711,1.205c0,0,15.869-14.535,10.469-29.134,0,0-1.582-3.68-2.916-4.25,0,0,5.906,14.213-11.1,26.08.018-.009-.377.451-1.288-.892,1.113,1.619,3.661,5.078,3.128,6.992" transform="translate(-397.205 -31.867)" opacity="0.1" fill="url(#linear-gradient-3)"/>
    <path id="Path_13846" data-name="Path 13846" d="M481.568,151s5.906,14.222-11.1,26.089c0,0-.478.478-1.334-.892,0,0-1.84-3.836-7.645,2.217,0,0-4.443,4.471-7.773,14.342l-.313,1.9s6.789,5.842,8.445,6.348c0,0,7.93-22.722,10.469-17.838,0,0,.635,2.475,1.711,1.205,0,0,15.869-14.535,10.469-29.134C484.485,155.25,482.9,151.57,481.568,151Z" transform="translate(-241.481 -31.504)" fill="url(#linear-gradient-4)"/>
    <g id="Group_10921" data-name="Group 10921" transform="translate(212.093 122.468)">
      <g id="Group_10920" data-name="Group 10920" transform="translate(0 0)">
        <path id="Path_13847" data-name="Path 13847" d="M492.7,658.3c.083.064.166.129.239.193A3.663,3.663,0,0,1,495,659.514l1.748,1.748c.193.11.359.2.506.276l-2.143-2.143A3.8,3.8,0,0,0,492.7,658.3Z" transform="translate(-489.259 -614.603)" fill="#fff"/>
        <path id="Path_13848" data-name="Path 13848" d="M455.383,603.914a4.847,4.847,0,0,1-.083,1.785c.037.037.092.074.138.12a4.937,4.937,0,0,0,.028-2.318c-.018.046-.028.083-.046.129Z" transform="translate(-455.3 -564.844)" fill="#fff"/>
        <path id="Path_13849" data-name="Path 13849" d="M480.348,646.666a4.653,4.653,0,0,1,3.33,1.38l2.051,2.051h.009a1.238,1.238,0,0,1,.064-.166h0l-2.005-2.005a4.842,4.842,0,0,0-3.45-1.426,4.594,4.594,0,0,0-.948.092c.055.046.11.092.175.138A5.251,5.251,0,0,1,480.348,646.666Z" transform="translate(-477.183 -603.889)" fill="#fff"/>
        <path id="Path_13850" data-name="Path 13850" d="M501.535,665.056a3.384,3.384,0,0,0-1.435-.856c.156.12.3.239.46.359a3.309,3.309,0,0,1,.865.616l.175.175c.294.221.57.423.837.607Z" transform="translate(-495.979 -619.96)" fill="#fff"/>
        <path id="Path_13851" data-name="Path 13851" d="M475.785,601.585a1.5,1.5,0,0,0,.442-1.067,1.533,1.533,0,0,0-.442-1.076,1.513,1.513,0,0,0-2.585,1.076,1.533,1.533,0,0,0,.442,1.076,1.5,1.5,0,0,0,1.067.442A1.526,1.526,0,0,0,475.785,601.585Zm-2.419-1.076a1.351,1.351,0,1,1,.4.957A1.312,1.312,0,0,1,473.366,600.509Z" transform="translate(-471.553 -560.758)" fill="#fff"/>
        <path id="Path_13852" data-name="Path 13852" d="M474.892,545.309h-.083c-.313,0-.626,0-.938-.009h-.037l-2.051,2.052a4.7,4.7,0,0,1-5.428.883c-.018.055-.037.1-.055.156a4.881,4.881,0,0,0,5.612-.92l2.005-2.005c.276.009.552.009.828.009,0,.285,0,.552.009.819l-2.005,2.005h0a4.892,4.892,0,0,0,0,6.909l1.619,1.619c.018-.055.046-.11.064-.175l-1.564-1.564a4.719,4.719,0,0,1,0-6.669l2.033-2.024.028-.028v-.037c-.009-.3-.009-.616-.009-.938Z" transform="translate(-465.288 -511.998)" fill="#fff"/>
        <path id="Path_13853" data-name="Path 13853" d="M485.554,611.4a.444.444,0,0,0,0-.626.456.456,0,0,0-.626,0,.442.442,0,0,0,.313.754A.4.4,0,0,0,485.554,611.4Zm-.589-.313a.251.251,0,0,1,.083-.193.265.265,0,0,1,.193-.083.25.25,0,0,1,.193.083.267.267,0,0,1,0,.386.284.284,0,0,1-.386,0A.269.269,0,0,1,484.966,611.087Z" transform="translate(-482.086 -571.337)" fill="#fff"/>
        <path id="Path_13854" data-name="Path 13854" d="M744.559,254.569a3.611,3.611,0,0,1-1.067,2.576l-2.383,2.383.009.147c.037.681.028,1.38,0,2.079l-.018.377.377-.018c.672-.037,1.38-.037,2.079-.009l.147.009,1.932-1.932c.037-.12.074-.23.11-.35l-2.116,2.116h-.074c-.7-.028-1.407-.028-2.088.009l-.193.009.009-.193a19.728,19.728,0,0,0,0-2.088v-.074l2.337-2.337a3.82,3.82,0,0,0,0-5.391l-.083-.083a1.568,1.568,0,0,1-.037.2A3.6,3.6,0,0,1,744.559,254.569Z" transform="translate(-714.808 -245.499)" fill="#fff"/>
        <path id="Path_13855" data-name="Path 13855" d="M729.284,383.414a18.623,18.623,0,0,0,2.005-6.329c.5-.009.984,0,1.472.028l.561.037c.055-.11.11-.23.166-.35l-.175.175-.534-.028c-.515-.028-1.03-.037-1.564-.018h-.074l-.009.074a18.668,18.668,0,0,1-2.015,6.384l-.018.037.018.037.166.331c.037-.046.074-.1.11-.147C729.358,383.562,729.321,383.488,729.284,383.414Z" transform="translate(-703.912 -358.999)" fill="#fff"/>
        <path id="Path_13856" data-name="Path 13856" d="M479.919,533.2l-.377.018a19.555,19.555,0,0,1-2.079,0l-.147-.009-2.383,2.383a3.611,3.611,0,0,1-2.576,1.067,3.682,3.682,0,0,1-1.693-.414c-.018.055-.046.1-.064.156a3.846,3.846,0,0,0,1.757.432,3.785,3.785,0,0,0,2.7-1.113l2.337-2.337h.074c.708.037,1.389.028,2.088,0l.193-.009-.009.193c-.037.736-.037,1.417-.009,2.088v.074l-2.337,2.337a3.826,3.826,0,0,0,0,5.391l1.279,1.279c.018-.055.046-.11.064-.166l-1.224-1.224a3.653,3.653,0,0,1,0-5.152l2.383-2.383-.009-.147c-.028-.662-.028-1.343.009-2.07Z" transform="translate(-469.193 -501.012)" fill="#fff"/>
        <path id="Path_13857" data-name="Path 13857" d="M768,183.328h-.1l.028.166h.092l.534-.028,1.72,1.729c-.037-.12-.083-.239-.129-.359l-1.536-1.536Z" transform="translate(-739.143 -183.3)" fill="#fff"/>
        <path id="Path_13858" data-name="Path 13858" d="M718.7,259.563a3.4,3.4,0,0,0-.865-2.263c-.009.064-.028.138-.037.2a3.233,3.233,0,0,1-.193,4.342l-2.456,2.456c-.018.037-.046.074-.064.11l.009.092a20.1,20.1,0,0,1,0,2.355l-.009.147-.147.018q-.952.1-1.877.276c-.055.064-.11.138-.166.2a18.838,18.838,0,0,1,2.061-.313l.294-.028.018-.294a20.418,20.418,0,0,0,0-2.373v-.055l2.465-2.465A3.549,3.549,0,0,0,718.7,259.563Z" transform="translate(-689.202 -250.492)" fill="#fff"/>
        <path id="Path_13859" data-name="Path 13859" d="M549.215,547.675l.81.81c.018-.055.046-.11.064-.166l-.754-.754a2.16,2.16,0,0,1,0-3.045l2.861-2.861-.037-.607c-.028-.488-.037-.975-.028-1.481a20,20,0,0,0,2.015-.377,1.955,1.955,0,0,0,.1-.193,21,21,0,0,1-2.217.423l-.074.009v.074c-.009.534-.009,1.049.028,1.564l.028.534-2.806,2.806A2.318,2.318,0,0,0,549.215,547.675Z" transform="translate(-539.96 -506.278)" fill="#fff"/>
        <path id="Path_13860" data-name="Path 13860" d="M602.351,420.929c-.028-.037-.064-.083-.1-.129a15.153,15.153,0,0,0-1.84,2.392l-.11.184.11.184a15.251,15.251,0,0,0,2.153,2.723,16.956,16.956,0,0,0,1.637,1.407.873.873,0,0,1,.156-.083,15.742,15.742,0,0,1-1.683-1.435,14.915,14.915,0,0,1-2.125-2.7l-.055-.092.055-.092A13.592,13.592,0,0,1,602.351,420.929Z" transform="translate(-586.961 -398.952)" fill="#fff"/>
        <path id="Path_13861" data-name="Path 13861" d="M688.437,384.409l.083.11.055-.129a16.473,16.473,0,0,0,1.04-3.68l.018-.11-.11.018a16.419,16.419,0,0,0-2.631.653l-.267.267a16.311,16.311,0,0,1,2.806-.736,16.306,16.306,0,0,1-.957,3.4,17.223,17.223,0,0,0-1.159-1.288,14.1,14.1,0,0,0-1.095-.984,1.454,1.454,0,0,0-.12.12c.377.313.754.644,1.095.984A12.647,12.647,0,0,1,688.437,384.409Z" transform="translate(-664.868 -362.45)" fill="#fff"/>
        <path id="Path_13862" data-name="Path 13862" d="M752.966,274.273a2.121,2.121,0,0,1-.626,1.518l-.175.175c-.055.138-.11.267-.166.4l.46-.46a2.319,2.319,0,0,0,.681-1.637A2.169,2.169,0,0,0,753,273.5l-.083.3A2.536,2.536,0,0,1,752.966,274.273Z" transform="translate(-724.706 -265.202)" fill="#fff"/>
        <path id="Path_13863" data-name="Path 13863" d="M596.586,413.03l.083-.11c.23-.285.469-.561.708-.837-.064-.018-.12-.028-.193-.046-.193.221-.386.442-.561.662-.092-.23-.175-.46-.258-.7l-.166.028c.1.294.212.58.331.865Z" transform="translate(-583.238 -390.961)" fill="#fff"/>
        <path id="Path_13864" data-name="Path 13864" d="M665.44,451.3l-.313.478a14.928,14.928,0,0,1-4.268,4.278l-.359.239c.018.055.046.12.074.184l.313.166c.359.184.718.359,1.095.515a.994.994,0,0,0,.092-.1l.028-.028c-.386-.166-.773-.34-1.141-.543l-.258-.138.248-.166a15.125,15.125,0,0,0,4.324-4.324l.166-.248.138.258c.147.285.285.57.423.865a1.688,1.688,0,0,1,.12-.147c-.12-.267-.248-.534-.386-.791Z" transform="translate(-641.623 -426.646)" fill="#fff"/>
        <path id="Path_13865" data-name="Path 13865" d="M663.73,410.1l.11-.175-.11-.175a15,15,0,0,0-2.153-2.723c-.359-.359-.745-.7-1.15-1.03-.046.037-.083.074-.129.11.4.331.791.672,1.159,1.03a14.362,14.362,0,0,1,2.125,2.7l.055.092-.055.092a15.159,15.159,0,0,1-2.125,2.7,14.879,14.879,0,0,1-2.557,2.033c.009.028.028.092.046.166a14.449,14.449,0,0,0,2.622-2.088A14.817,14.817,0,0,0,663.73,410.1Z" transform="translate(-640.17 -385.513)" fill="#fff"/>
        <path id="Path_13866" data-name="Path 13866" d="M683.11,367.514l.046-.414-.414.046a21.3,21.3,0,0,0-2.189.359c-.055.074-.12.138-.184.212a18.146,18.146,0,0,1,2.383-.4l.212-.018-.018.212a17.177,17.177,0,0,1-1.858,6.274l-.138.258-.166-.248a14.958,14.958,0,0,0-3.063-3.395,1.412,1.412,0,0,0-.12.11c.4.322.773.662,1.131,1.012a15.39,15.39,0,0,1,1.913,2.355l.313.478.267-.506A17.032,17.032,0,0,0,683.11,367.514Z" transform="translate(-657.15 -350.192)" fill="#fff"/>
        <path id="Path_13867" data-name="Path 13867" d="M723.64,349.623V349.2c-.055.074-.11.156-.166.23v.046a.055.055,0,0,0-.037.009l-.138.193c.092-.009.175-.028.267-.037Z" transform="translate(-698.646 -333.938)" fill="#fff"/>
        <path id="Path_13868" data-name="Path 13868" d="M720.723,350.447h-.055a20.454,20.454,0,0,0-2.373.009l-.294.018-.028.294a17.428,17.428,0,0,1-2.18,7.056l-.092.166.092.166c.212.377.414.764.6,1.159.037-.046.074-.1.11-.147-.175-.368-.359-.736-.57-1.095l-.046-.083.046-.083a17.651,17.651,0,0,0,2.208-7.129l.018-.147.147-.009a22.4,22.4,0,0,1,2.355-.009l.129.009,1.453-1.453c.046-.12.092-.248.138-.368Z" transform="translate(-691.745 -333.575)" fill="#fff"/>
        <path id="Path_13869" data-name="Path 13869" d="M754,247.5c-.276-.009-.543-.009-.819-.009,0-.276,0-.552-.009-.828l2.005-2.005a4.886,4.886,0,0,0,0-6.9l-.662-.662c-.009.074-.009.138-.018.212l.57.57a4.708,4.708,0,0,1,0,6.66L753,246.6v.037c.009.313.009.626.009.938v.083h.083c.313-.009.625,0,.938.009h.037l2.052-2.051a4.585,4.585,0,0,1,.855-.672c.018-.074.037-.147.055-.23a4.914,4.914,0,0,0-1.03.782Z" transform="translate(-725.614 -232.151)" fill="#fff"/>
        <path id="Path_13870" data-name="Path 13870" d="M769.8,200.4c.009.083.009.166.018.248l2.208,2.208a4.069,4.069,0,0,0,.626.506c-.009-.074-.028-.156-.037-.23a4.769,4.769,0,0,1-.469-.386Z" transform="translate(-740.868 -198.827)" fill="#fff"/>
        <path id="Path_13871" data-name="Path 13871" d="M771.977,197.721l-2.521-2.521-.129.009H769.3c.009.055.009.11.018.166h.074l2.465,2.465c.074.074.147.138.221.2-.018-.092-.037-.184-.064-.276A.091.091,0,0,0,771.977,197.721Z" transform="translate(-740.414 -194.105)" fill="#fff"/>
        <path id="Path_13872" data-name="Path 13872" d="M771.827,218.927,770.3,217.4v.23l1.408,1.407a4.883,4.883,0,0,0,1.555,1.049c-.009-.064-.009-.129-.018-.193A4.514,4.514,0,0,1,771.827,218.927Z" transform="translate(-741.322 -214.263)" fill="#fff"/>
        <path id="Path_13873" data-name="Path 13873" d="M579.15,457.694l.138-.221a18.129,18.129,0,0,1-3.993.874l-.212.018.018-.212a17.23,17.23,0,0,1,1.858-6.274l.138-.258.166.248a15.44,15.44,0,0,0,1.941,2.383,16.272,16.272,0,0,0,1.582,1.371,1.6,1.6,0,0,0,.129-.11,14.629,14.629,0,0,1-1.6-1.38,15.051,15.051,0,0,1-1.913-2.355l-.313-.478-.267.506a17.355,17.355,0,0,0-1.877,6.329l-.046.423.423-.046A17.791,17.791,0,0,0,579.15,457.694Z" transform="translate(-563.898 -426.646)" fill="#fff"/>
        <path id="Path_13874" data-name="Path 13874" d="M481.509,426.956a17.473,17.473,0,0,1,2.18-7.056l.1-.166-.1-.166a17.1,17.1,0,0,1-1.251-2.769c-.055.028-.1.046-.147.074a16.143,16.143,0,0,0,1.26,2.778l.046.083-.046.083a17.5,17.5,0,0,0-2.2,7.13l-.018.147-.147.009a20.1,20.1,0,0,1-2.355,0l-.129-.009-2.521,2.521a3.2,3.2,0,0,1-2.281.938,3.28,3.28,0,0,1-1.536-.386c-.018.055-.046.1-.064.156a3.408,3.408,0,0,0,1.6.4,3.36,3.36,0,0,0,2.4-.994l2.465-2.465h.055a20.412,20.412,0,0,0,2.373,0l.294-.018Z" transform="translate(-470.736 -395.32)" fill="#fff"/>
        <path id="Path_13875" data-name="Path 13875" d="M479.9,434.237l2.806-2.8.534.028q.773.041,1.573.028h.074l.009-.074a18.472,18.472,0,0,1,2.015-6.384l.018-.037-.018-.037a17.582,17.582,0,0,1-1.049-2.364,1.318,1.318,0,0,0-.138.1,17.938,17.938,0,0,0,1.021,2.309,18.623,18.623,0,0,0-2.005,6.329c-.506.009-.994,0-1.49-.028l-.607-.028-2.852,2.852a2.136,2.136,0,0,1-1.518.626,2.187,2.187,0,0,1-1.1-.3c-.018.046-.046.1-.064.156a2.313,2.313,0,0,0,1.168.313A2.34,2.34,0,0,0,479.9,434.237Z" transform="translate(-475.094 -400.586)" fill="#fff"/>
        <path id="Path_13876" data-name="Path 13876" d="M590.819,475.69a14.561,14.561,0,0,1-1.224-1.38l-.083-.11-.055.129a16.616,16.616,0,0,0-1.04,3.68l-.018.11.11-.018a16.34,16.34,0,0,0,3.68-1.04l.129-.055-.11-.083A16.554,16.554,0,0,1,590.819,475.69Zm-2.226,2.226a16.382,16.382,0,0,1,.957-3.395c.368.451.754.883,1.15,1.288a15.488,15.488,0,0,0,1.288,1.15A16.219,16.219,0,0,1,588.593,477.917Z" transform="translate(-576.156 -447.439)" fill="#fff"/>
        <path id="Path_13877" data-name="Path 13877" d="M586.079,417.852l.313-.478a15.031,15.031,0,0,1,1.6-2.024,1.6,1.6,0,0,0-.129-.11,15.957,15.957,0,0,0-1.619,2.042l-.166.248-.138-.258a16.135,16.135,0,0,1-.984-2.272c-.055.018-.1.037-.156.055a18.072,18.072,0,0,0,.984,2.291Z" transform="translate(-572.887 -393.685)" fill="#fff"/>
        <path id="Path_13878" data-name="Path 13878" d="M621.946,416.966l.028-.046-.028-.046a14.017,14.017,0,0,0-1.72-2.1A13.821,13.821,0,0,0,619,413.7c-.046.037-.083.074-.129.11a15.511,15.511,0,0,1,1.233,1.086,13.531,13.531,0,0,1,1.665,2.024,14.773,14.773,0,0,1-1.665,2.024,13.534,13.534,0,0,1-2.024,1.665,13.53,13.53,0,0,1-2.024-1.665,13.733,13.733,0,0,1-1.665-2.024,13.581,13.581,0,0,1,1.224-1.555,1.417,1.417,0,0,1-.11-.12,13.945,13.945,0,0,0-1.279,1.637l-.028.046.028.046a14.223,14.223,0,0,0,1.72,2.1,14.5,14.5,0,0,0,2.1,1.72l.046.028.046-.028a14.011,14.011,0,0,0,2.1-1.72A15.149,15.149,0,0,0,621.946,416.966Z" transform="translate(-599.582 -392.505)" fill="#fff"/>
        <path id="Path_13879" data-name="Path 13879" d="M537.891,535.053a3.243,3.243,0,0,1,0-4.563l2.521-2.521-.009-.129a22.34,22.34,0,0,1,0-2.355l.009-.147.147-.018a18.55,18.55,0,0,0,3.634-.708c.046-.074.083-.138.129-.212a18.482,18.482,0,0,1-3.781.754l-.294.028-.018.294a20.434,20.434,0,0,0,0,2.373v.055l-2.465,2.465a3.4,3.4,0,0,0,0,4.793L538.9,536.3c.018-.055.046-.11.064-.166Z" transform="translate(-529.28 -493.021)" fill="#fff"/>
        <path id="Path_13880" data-name="Path 13880" d="M684.806,474.2l-.083.11a14.793,14.793,0,0,1-1.233,1.38,16.079,16.079,0,0,1-1.38,1.233l-.11.083.129.055c.064.028.138.046.2.074l.129-.129c-.046-.018-.092-.028-.129-.046.386-.313.754-.644,1.1-.984.432-.469.911-1.021,1.435-1.647v-.009Z" transform="translate(-661.145 -447.439)" fill="#fff"/>
        <path id="Path_13881" data-name="Path 13881" d="M663.512,511.9c.184.092.368.175.561.267a.543.543,0,0,0,.221-.083c-.34-.147-.672-.313-.994-.488A1.2,1.2,0,0,0,663.512,511.9Z" transform="translate(-644.165 -481.399)" fill="#fff"/>
      </g>
    </g>
    <path id="Path_13882" data-name="Path 13882" d="M628.028,183.579s.635,2.475,1.711,1.205c0,0,15.869-14.535,10.469-29.134,0,0-1.582-3.68-2.916-4.25,0,0,5.906,14.213-11.1,26.08.018-.009-.377.451-1.288-.892,1.113,1.619,3.661,5.078,3.128,6.992" transform="translate(-397.205 -31.867)" opacity="0.2" fill="url(#linear-gradient-3)"/>
    <g id="Group_10922" data-name="Group 10922" transform="translate(187.595 173.055)">
      <path id="Path_13883" data-name="Path 13883" d="M214.6,768.214a.607.607,0,1,0-.6-.616A.6.6,0,0,0,214.6,768.214Z" transform="translate(-211.7 -763.891)" fill="#026fb2"/>
      <path id="Path_13884" data-name="Path 13884" d="M193.876,759c.009.028.009.6.009,1.739a2.759,2.759,0,0,1-.589,1.821,1.654,1.654,0,0,1-1.325.644c-1.251,0-1.987-.984-1.987-2.548v-1.794H189v1.831a3.457,3.457,0,0,0,.662,2.263,2.661,2.661,0,0,0,2.171.883,3,3,0,0,0,2.226-.8,2.835,2.835,0,0,0,.81-2.116V757.4l-1.178.285Z" transform="translate(-189 -755.174)" fill="#026fb2"/>
      <path id="Path_13885" data-name="Path 13885" d="M264.975,738.158a1.382,1.382,0,0,0,1.481,1.5h12.576c1.49,0,2.245-.589,2.245-1.766v-1.4l.092-1.04a4.823,4.823,0,0,0-1.435-.23,2.3,2.3,0,0,0-2.475,2.456,2.1,2.1,0,0,0,.3,1.076h-2.143v-1.463a1.55,1.55,0,0,0-.681-1.334,2.87,2.87,0,0,0-1.748-.488c-1.3,0-2.475.846-3.569,2.539v-2.2l-.984.221-.018,1.932c0,.534-.239.791-.727.791H266.7c-.478,0-.727-.267-.727-.819V733.2l-1.178.267.175,1.288Zm14.747-2.245a1.573,1.573,0,0,1,.524.074l.083.58a6.443,6.443,0,0,1,.074.846c0,.892-.359,1.343-1.076,1.343-.57,0-.865-.423-.865-1.26C278.452,736.438,278.875,735.914,279.721,735.914Zm-8.638,1.417a2.744,2.744,0,0,1,1.886-1.021c1.095,0,1.647.377,1.647,1.141v1.306H270.08A4.239,4.239,0,0,1,271.083,737.33Z" transform="translate(-257.827 -733.2)" fill="#026fb2"/>
      <path id="Path_13886" data-name="Path 13886" d="M347.7,734.414a.607.607,0,1,0,0-1.214.6.6,0,0,0-.6.616A.591.591,0,0,0,347.7,734.414Z" transform="translate(-332.554 -733.2)" fill="#026fb2"/>
      <path id="Path_13887" data-name="Path 13887" d="M450.573,761.027V757.2l-1.2.267.2,1.343.009,2.521a1.828,1.828,0,0,1-1.389,1.932l.212.4A2.572,2.572,0,0,0,450.573,761.027Z" transform="translate(-424.355 -754.992)" fill="#026fb2"/>
      <path id="Path_13888" data-name="Path 13888" d="M534.906,758.181v-2.787l-1.187.267.184,1.306v.984c0,.534-.239.791-.708.791a1.191,1.191,0,0,1-.865-.368v-2.585l-.984.221v1.95c0,.534-.239.791-.708.791a1.266,1.266,0,0,1-.892-.35v-2.613l-.984.221-.018,1.941c0,.534-.239.791-.727.791h-1.187c-.488,0-.736-.313-.736-.92V756.47l.1-1.04a4.826,4.826,0,0,0-1.435-.23,2.3,2.3,0,0,0-2.475,2.456,2.1,2.1,0,0,0,.3,1.076h-1.407a1.333,1.333,0,0,0-1.481,1.38v.9l.994.672v-1.306c0-.506.239-.754.736-.754h2.438a2.652,2.652,0,0,0,1.582-.4,1.534,1.534,0,0,0,1.15.4h1.665a1.534,1.534,0,0,0,1.076-.377,1.442,1.442,0,0,0,.193-.221,1.838,1.838,0,0,0,1.361.6,1.391,1.391,0,0,0,1.214-.57,1.821,1.821,0,0,0,1.352.57A1.348,1.348,0,0,0,534.906,758.181Zm-10.772.552c-.57,0-.865-.423-.865-1.26,0-1.058.423-1.573,1.26-1.573a1.608,1.608,0,0,1,.524.074l.083.58a6.439,6.439,0,0,1,.074.846C525.2,758.282,524.842,758.733,524.134,758.733Z" transform="translate(-489.278 -753.176)" fill="#026fb2"/>
      <path id="Path_13889" data-name="Path 13889" d="M704.9,755.2a2.3,2.3,0,0,0-2.475,2.456,2.1,2.1,0,0,0,.3,1.076h-2.419v-3.459h-1.463a2.245,2.245,0,0,0-1.7.681,2.428,2.428,0,0,0-.644,1.766,1.884,1.884,0,0,0,.561,1.426,1.777,1.777,0,0,0,1.316.488h.957a1.936,1.936,0,0,1-1.361,1.821l.212.4a2.58,2.58,0,0,0,2.116-2.217H704c1.49,0,2.245-.589,2.245-1.766v-1.4l.092-1.04A4.778,4.778,0,0,0,704.9,755.2Zm-5.6,3.533h-.846c-.626,0-.929-.4-.929-1.2,0-1.039.469-1.683,1.26-1.683h.515Zm4.986,0c-.57,0-.865-.423-.865-1.26,0-1.058.423-1.573,1.26-1.573a1.572,1.572,0,0,1,.524.074l.083.58a6.439,6.439,0,0,1,.074.846C705.35,758.282,704.991,758.733,704.283,758.733Z" transform="translate(-649.813 -753.176)" fill="#026fb2"/>
      <path id="Path_13890" data-name="Path 13890" d="M263.536,854.659a1.523,1.523,0,0,1-.028-.294c0-.1-.009-.2-.018-.294a2.459,2.459,0,0,0-.046-.276.924.924,0,0,0-.092-.239.557.557,0,0,0-.175-.184.618.618,0,0,0-.285-.11v-.009a.838.838,0,0,0,.524-.377,1.209,1.209,0,0,0,.166-.635.966.966,0,0,0-.322-.763,1.312,1.312,0,0,0-.892-.276H260.5v3.974h.524v-1.7h1.288a.762.762,0,0,1,.313.055.629.629,0,0,1,.193.156.584.584,0,0,1,.1.23q.028.124.055.276c.018.1.028.193.037.294s.009.193.009.285a1,1,0,0,0,.028.239.278.278,0,0,0,.074.166h.589a.707.707,0,0,1-.129-.23A2.64,2.64,0,0,0,263.536,854.659Zm-.754-1.775a.754.754,0,0,1-.294.11,2.149,2.149,0,0,1-.35.028h-1.1v-1.389h1.315a.684.684,0,0,1,.543.193.826.826,0,0,1,.092.837A.669.669,0,0,1,262.781,852.884Z" transform="translate(-253.922 -840.345)" fill="#026fb2"/>
      <path id="Path_13891" data-name="Path 13891" d="M301.929,864.811a1.522,1.522,0,0,1-.018-.248v-1.481a.754.754,0,0,0-.092-.4.687.687,0,0,0-.248-.239,1.039,1.039,0,0,0-.35-.11,2.724,2.724,0,0,0-.386-.028,2.437,2.437,0,0,0-.46.046,1.174,1.174,0,0,0-.377.166.821.821,0,0,0-.267.294,1.083,1.083,0,0,0-.11.451h.469a.472.472,0,0,1,.221-.432,1.043,1.043,0,0,1,.5-.11,2.113,2.113,0,0,1,.23.018.654.654,0,0,1,.2.064.377.377,0,0,1,.147.147.5.5,0,0,1,.055.248.271.271,0,0,1-.074.2.572.572,0,0,1-.212.11,1.465,1.465,0,0,1-.313.055c-.12.009-.239.037-.368.055a2.528,2.528,0,0,0-.359.083,1.092,1.092,0,0,0-.313.147.673.673,0,0,0-.221.258.855.855,0,0,0-.083.4.873.873,0,0,0,.074.368.67.67,0,0,0,.2.248.769.769,0,0,0,.3.138,1.562,1.562,0,0,0,.929-.055,1.07,1.07,0,0,0,.451-.34.459.459,0,0,0,.11.34.423.423,0,0,0,.294.1.693.693,0,0,0,.34-.074v-.368a.43.43,0,0,1-.147.018A.12.12,0,0,1,301.929,864.811Zm-.488-.57a.627.627,0,0,1-.046.212.663.663,0,0,1-.156.212.8.8,0,0,1-.276.156,1.069,1.069,0,0,1-.4.064,1.507,1.507,0,0,1-.212-.018.5.5,0,0,1-.175-.074.4.4,0,0,1-.12-.129.428.428,0,0,1-.046-.193.412.412,0,0,1,.083-.276.53.53,0,0,1,.212-.156,1.294,1.294,0,0,1,.285-.083c.11-.018.212-.028.322-.046s.2-.028.3-.046a.485.485,0,0,0,.23-.1Z" transform="translate(-289.335 -850.424)" fill="#026fb2"/>
      <path id="Path_13892" data-name="Path 13892" d="M337.472,862.493a.781.781,0,0,0-.3-.147,1.73,1.73,0,0,0-.4-.046,1.133,1.133,0,0,0-.524.129.943.943,0,0,0-.377.359.634.634,0,0,0-.3-.377,1.13,1.13,0,0,0-1.417.377h-.009v-.423H333.7v2.879h.469V863.45a.735.735,0,0,1,.046-.212.7.7,0,0,1,.138-.239.871.871,0,0,1,.239-.2.7.7,0,0,1,.35-.083.73.73,0,0,1,.267.046.394.394,0,0,1,.166.138.5.5,0,0,1,.083.2,1.107,1.107,0,0,1,.028.258v1.886h.469V863.45a.7.7,0,0,1,.2-.534.729.729,0,0,1,.552-.2.8.8,0,0,1,.285.046.417.417,0,0,1,.166.138.667.667,0,0,1,.083.2,1.089,1.089,0,0,1,.018.248v1.886h.469v-2.107a.918.918,0,0,0-.074-.377A.579.579,0,0,0,337.472,862.493Z" transform="translate(-320.389 -850.424)" fill="#026fb2"/>
      <path id="Path_13893" data-name="Path 13893" d="M386.129,864.811a1.522,1.522,0,0,1-.018-.248v-1.481a.754.754,0,0,0-.092-.4.687.687,0,0,0-.248-.239,1.039,1.039,0,0,0-.35-.11,2.724,2.724,0,0,0-.386-.028,2.437,2.437,0,0,0-.46.046,1.174,1.174,0,0,0-.377.166.822.822,0,0,0-.267.294,1.084,1.084,0,0,0-.11.451h.469a.472.472,0,0,1,.221-.432,1.043,1.043,0,0,1,.5-.11,2.113,2.113,0,0,1,.23.018.654.654,0,0,1,.2.064.377.377,0,0,1,.147.147.5.5,0,0,1,.055.248.271.271,0,0,1-.074.2.572.572,0,0,1-.212.11,1.465,1.465,0,0,1-.313.055c-.12.009-.239.037-.368.055a2.528,2.528,0,0,0-.359.083,1.092,1.092,0,0,0-.313.147.673.673,0,0,0-.221.258.855.855,0,0,0-.083.4.873.873,0,0,0,.074.368.671.671,0,0,0,.2.248.769.769,0,0,0,.3.138,1.562,1.562,0,0,0,.929-.055,1.07,1.07,0,0,0,.451-.34.459.459,0,0,0,.11.34.423.423,0,0,0,.294.1.693.693,0,0,0,.34-.074v-.368a.43.43,0,0,1-.147.018C386.184,864.885,386.138,864.857,386.129,864.811Zm-.5-.57a.627.627,0,0,1-.046.212.663.663,0,0,1-.156.212.8.8,0,0,1-.276.156,1.069,1.069,0,0,1-.4.064,1.507,1.507,0,0,1-.212-.018.5.5,0,0,1-.175-.074.4.4,0,0,1-.12-.129.428.428,0,0,1-.046-.193.412.412,0,0,1,.083-.276.531.531,0,0,1,.212-.156,1.294,1.294,0,0,1,.285-.083c.11-.018.212-.028.322-.046s.2-.028.3-.046a.485.485,0,0,0,.23-.1Z" transform="translate(-365.789 -850.424)" fill="#026fb2"/>
      <path id="Path_13894" data-name="Path 13894" d="M418.363,852.672h-.009a.856.856,0,0,0-.193-.212,1.242,1.242,0,0,0-.239-.138.9.9,0,0,0-.258-.074,1.087,1.087,0,0,0-.239-.018,1.28,1.28,0,0,0-.58.12,1.2,1.2,0,0,0-.414.322,1.394,1.394,0,0,0-.248.478,2.07,2.07,0,0,0,0,1.159,1.392,1.392,0,0,0,.248.478,1.221,1.221,0,0,0,.414.331,1.28,1.28,0,0,0,.58.12,1.512,1.512,0,0,0,.552-.1.717.717,0,0,0,.368-.35h.009v.386h.469V851.2h-.469v1.472Zm-.037,1.454a.927.927,0,0,1-.156.35.894.894,0,0,1-.276.248.8.8,0,0,1-.4.092.8.8,0,0,1-.672-.331,1.065,1.065,0,0,1-.166-.34,1.417,1.417,0,0,1-.055-.4,2.114,2.114,0,0,1,.046-.414.955.955,0,0,1,.147-.359.77.77,0,0,1,.267-.248.8.8,0,0,1,.4-.092.811.811,0,0,1,.414.092.9.9,0,0,1,.285.239.867.867,0,0,1,.156.35,1.478,1.478,0,0,1,.046.4A1.189,1.189,0,0,1,418.326,854.125Z" transform="translate(-395.208 -840.345)" fill="#026fb2"/>
      <path id="Path_13895" data-name="Path 13895" d="M454.429,864.811a1.527,1.527,0,0,1-.018-.248v-1.481a.754.754,0,0,0-.092-.4.687.687,0,0,0-.248-.239,1.039,1.039,0,0,0-.35-.11,2.724,2.724,0,0,0-.386-.028,2.437,2.437,0,0,0-.46.046,1.174,1.174,0,0,0-.377.166.821.821,0,0,0-.267.294,1.084,1.084,0,0,0-.11.451h.469a.472.472,0,0,1,.221-.432,1.043,1.043,0,0,1,.5-.11,2.112,2.112,0,0,1,.23.018.654.654,0,0,1,.2.064.377.377,0,0,1,.147.147.5.5,0,0,1,.055.248.271.271,0,0,1-.074.2.572.572,0,0,1-.212.11,1.465,1.465,0,0,1-.313.055c-.12.009-.239.037-.368.055a2.528,2.528,0,0,0-.359.083,1.092,1.092,0,0,0-.313.147.673.673,0,0,0-.221.258.855.855,0,0,0-.083.4.872.872,0,0,0,.074.368.67.67,0,0,0,.2.248.769.769,0,0,0,.3.138,1.562,1.562,0,0,0,.929-.055,1.07,1.07,0,0,0,.451-.34.459.459,0,0,0,.11.34.423.423,0,0,0,.294.1.693.693,0,0,0,.34-.074v-.368a.43.43,0,0,1-.147.018A.128.128,0,0,1,454.429,864.811Zm-.488-.57a.628.628,0,0,1-.046.212.665.665,0,0,1-.156.212.8.8,0,0,1-.276.156,1.069,1.069,0,0,1-.4.064,1.507,1.507,0,0,1-.212-.018.5.5,0,0,1-.175-.074.4.4,0,0,1-.12-.129.428.428,0,0,1-.046-.193.412.412,0,0,1,.083-.276.53.53,0,0,1,.212-.156,1.293,1.293,0,0,1,.285-.083c.11-.018.212-.028.322-.046s.2-.028.3-.046a.485.485,0,0,0,.23-.1Z" transform="translate(-427.806 -850.424)" fill="#026fb2"/>
      <path id="Path_13896" data-name="Path 13896" d="M488.462,862.594a.837.837,0,0,0-.3-.221,1.2,1.2,0,0,0-.469-.074,1.01,1.01,0,0,0-.938.524h-.009v-.46H486.3v2.879h.469v-1.628a1.128,1.128,0,0,1,.055-.359.947.947,0,0,1,.156-.285.713.713,0,0,1,.267-.193.924.924,0,0,1,.377-.064.607.607,0,0,1,.432.156.584.584,0,0,1,.156.423v1.95h.469v-1.9a1.987,1.987,0,0,0-.046-.423A.818.818,0,0,0,488.462,862.594Z" transform="translate(-458.95 -850.424)" fill="#026fb2"/>
      <path id="Path_13897" data-name="Path 13897" d="M537.987,852.262a1.519,1.519,0,0,0-.4-.2c-.156-.046-.3-.092-.469-.129s-.313-.074-.469-.1a2.117,2.117,0,0,1-.4-.12.73.73,0,0,1-.285-.184.4.4,0,0,1-.11-.294.666.666,0,0,1,.074-.322.634.634,0,0,1,.2-.212.71.71,0,0,1,.285-.11,2.03,2.03,0,0,1,.331-.037,1.144,1.144,0,0,1,.681.193.852.852,0,0,1,.313.616h.5a1.294,1.294,0,0,0-.129-.561,1.194,1.194,0,0,0-.313-.4,1.273,1.273,0,0,0-.46-.23,2.249,2.249,0,0,0-.57-.074,2.073,2.073,0,0,0-.534.074,1.41,1.41,0,0,0-.46.212.929.929,0,0,0-.322.359,1.052,1.052,0,0,0-.12.524.84.84,0,0,0,.11.451.873.873,0,0,0,.285.294,1.806,1.806,0,0,0,.4.184c.156.046.3.083.469.12s.313.074.469.1a2.1,2.1,0,0,1,.4.129.684.684,0,0,1,.285.212.48.48,0,0,1,.11.331.612.612,0,0,1-.092.359.662.662,0,0,1-.23.221.953.953,0,0,1-.322.11,2.383,2.383,0,0,1-.359.037,1.691,1.691,0,0,1-.432-.055.975.975,0,0,1-.368-.175.891.891,0,0,1-.258-.294.91.91,0,0,1-.1-.432h-.5a1.458,1.458,0,0,0,.129.626,1.094,1.094,0,0,0,.359.432,1.743,1.743,0,0,0,.524.258,2.353,2.353,0,0,0,.635.083,2.26,2.26,0,0,0,.552-.064,1.706,1.706,0,0,0,.5-.2,1.276,1.276,0,0,0,.368-.368,1.012,1.012,0,0,0,.138-.543.98.98,0,0,0-.11-.488A1.177,1.177,0,0,0,537.987,852.262Z" transform="translate(-503.352 -839.346)" fill="#026fb2"/>
      <path id="Path_13898" data-name="Path 13898" d="M576.813,863.395a1.583,1.583,0,0,0-.212-.534,1.309,1.309,0,0,0-.4-.4,1.2,1.2,0,0,0-.635-.156,1.332,1.332,0,0,0-.543.11,1.3,1.3,0,0,0-.432.313,1.731,1.731,0,0,0-.285.469,1.812,1.812,0,0,0-.1.6,2.1,2.1,0,0,0,.1.607,1.329,1.329,0,0,0,.258.478,1.182,1.182,0,0,0,.423.313,1.476,1.476,0,0,0,.6.11,1.268,1.268,0,0,0,.81-.248,1.13,1.13,0,0,0,.414-.727h-.469a.647.647,0,0,1-.258.423.835.835,0,0,1-.5.138.908.908,0,0,1-.4-.083.827.827,0,0,1-.285-.212.806.806,0,0,1-.166-.3,1.127,1.127,0,0,1-.046-.359h2.153A1.324,1.324,0,0,0,576.813,863.395Zm-2.107.129a.865.865,0,0,1,.074-.313.827.827,0,0,1,.166-.258.847.847,0,0,1,.258-.175.788.788,0,0,1,.331-.064.719.719,0,0,1,.322.064.828.828,0,0,1,.432.432.917.917,0,0,1,.074.322h-1.656Z" transform="translate(-538.764 -850.424)" fill="#026fb2"/>
      <path id="Path_13899" data-name="Path 13899" d="M609.128,864.811a1.52,1.52,0,0,1-.018-.248v-1.481a.754.754,0,0,0-.092-.4.687.687,0,0,0-.248-.239,1.04,1.04,0,0,0-.35-.11,2.725,2.725,0,0,0-.386-.028,2.436,2.436,0,0,0-.46.046,1.174,1.174,0,0,0-.377.166.822.822,0,0,0-.267.294,1.084,1.084,0,0,0-.11.451h.469a.472.472,0,0,1,.221-.432,1.043,1.043,0,0,1,.5-.11,2.112,2.112,0,0,1,.23.018.654.654,0,0,1,.2.064.376.376,0,0,1,.147.147.5.5,0,0,1,.055.248.271.271,0,0,1-.074.2.572.572,0,0,1-.212.11,1.464,1.464,0,0,1-.313.055c-.12.009-.239.037-.368.055a2.528,2.528,0,0,0-.359.083,1.093,1.093,0,0,0-.313.147.674.674,0,0,0-.221.258.855.855,0,0,0-.083.4.872.872,0,0,0,.074.368.671.671,0,0,0,.2.248.768.768,0,0,0,.3.138,1.562,1.562,0,0,0,.929-.055,1.07,1.07,0,0,0,.451-.34.459.459,0,0,0,.11.34.423.423,0,0,0,.294.1.693.693,0,0,0,.34-.074v-.368a.43.43,0,0,1-.147.018A.128.128,0,0,1,609.128,864.811Zm-.488-.57a.626.626,0,0,1-.046.212.664.664,0,0,1-.156.212.8.8,0,0,1-.276.156,1.069,1.069,0,0,1-.4.064,1.507,1.507,0,0,1-.212-.018.5.5,0,0,1-.175-.074.4.4,0,0,1-.12-.129.428.428,0,0,1-.046-.193.412.412,0,0,1,.083-.276.531.531,0,0,1,.212-.156,1.3,1.3,0,0,1,.285-.083c.11-.018.212-.028.322-.046s.2-.028.3-.046a.53.53,0,0,0,.23-.1Z" transform="translate(-568.274 -850.424)" fill="#026fb2"/>
      <path id="Path_13900" data-name="Path 13900" d="M640.871,863.736a.931.931,0,0,0-.3-.147c-.11-.037-.23-.064-.349-.092s-.221-.055-.331-.074a2.364,2.364,0,0,1-.3-.092.648.648,0,0,1-.221-.138.27.27,0,0,1-.083-.2.292.292,0,0,1,.055-.184.365.365,0,0,1,.147-.11.669.669,0,0,1,.193-.055,1.794,1.794,0,0,1,.212-.018.983.983,0,0,1,.23.028.846.846,0,0,1,.212.083.477.477,0,0,1,.156.147.566.566,0,0,1,.074.23h.469a1.039,1.039,0,0,0-.11-.442.679.679,0,0,0-.258-.276,1.1,1.1,0,0,0-.368-.147,2.265,2.265,0,0,0-.451-.046,1.694,1.694,0,0,0-.377.046,1.175,1.175,0,0,0-.35.147.741.741,0,0,0-.248.258.7.7,0,0,0-.1.377.626.626,0,0,0,.138.432.947.947,0,0,0,.35.239,3.221,3.221,0,0,0,.451.138c.166.028.313.064.451.1a1.116,1.116,0,0,1,.35.156.317.317,0,0,1,.138.276.333.333,0,0,1-.064.221.45.45,0,0,1-.166.129,1.373,1.373,0,0,1-.23.064,2.1,2.1,0,0,1-.23.018,1.43,1.43,0,0,1-.285-.028.731.731,0,0,1-.248-.092.529.529,0,0,1-.175-.175.57.57,0,0,1-.074-.267H638.7a1.084,1.084,0,0,0,.11.451.851.851,0,0,0,.267.3,1.227,1.227,0,0,0,.386.166,1.859,1.859,0,0,0,.46.046,2.4,2.4,0,0,0,.442-.046,1.137,1.137,0,0,0,.4-.147.91.91,0,0,0,.285-.276.794.794,0,0,0,.11-.432.7.7,0,0,0-.083-.35A.578.578,0,0,0,640.871,863.736Z" transform="translate(-597.331 -850.333)" fill="#026fb2"/>
      <path id="Path_13901" data-name="Path 13901" d="M671.847,862.642a1.3,1.3,0,0,0-.442-.322,1.552,1.552,0,0,0-.607-.12,1.361,1.361,0,0,0-.6.12,1.193,1.193,0,0,0-.442.322,1.286,1.286,0,0,0-.267.478,2.022,2.022,0,0,0-.092.589,1.754,1.754,0,0,0,.092.589,1.285,1.285,0,0,0,.267.478,1.172,1.172,0,0,0,.442.313,1.7,1.7,0,0,0,1.205,0,1.231,1.231,0,0,0,.708-.791,2.021,2.021,0,0,0,.092-.589,1.754,1.754,0,0,0-.092-.589A1.285,1.285,0,0,0,671.847,862.642Zm-.212,1.536a.942.942,0,0,1-.193.34.855.855,0,0,1-.984.212.8.8,0,0,1-.285-.212.941.941,0,0,1-.193-.34,1.532,1.532,0,0,1,0-.938.941.941,0,0,1,.193-.34.8.8,0,0,1,.285-.212.867.867,0,0,1,.7,0,.8.8,0,0,1,.285.212,1.026,1.026,0,0,1,.193.34,1.476,1.476,0,0,1,.074.469A1.67,1.67,0,0,1,671.635,864.178Z" transform="translate(-625.206 -850.333)" fill="#026fb2"/>
      <path id="Path_13902" data-name="Path 13902" d="M708.162,862.594a.836.836,0,0,0-.3-.221,1.2,1.2,0,0,0-.469-.074,1.01,1.01,0,0,0-.938.524h-.009v-.46H706v2.879h.469v-1.628a1.128,1.128,0,0,1,.055-.359.947.947,0,0,1,.156-.285.712.712,0,0,1,.267-.193.924.924,0,0,1,.377-.064.607.607,0,0,1,.432.156.584.584,0,0,1,.156.423v1.95h.469v-1.9a1.989,1.989,0,0,0-.046-.423A.818.818,0,0,0,708.162,862.594Z" transform="translate(-658.44 -850.424)" fill="#026fb2"/>
    </g>
    <path id="Path_13903" data-name="Path 13903" d="M473.5,124.044c3.891,5.455,8.206,2.585,8.206,2.585,7.111-4.149,7.148-7.405,7.148-7.405.166-2.245-4.4-.294-4.4-.294,4.866-3.891,7.277-2.245,7.277-2.245,4.278,3.891-3.726,10.874-3.726,10.874-6.9,6.384-11.131,1.251-11.131,1.251a48.9,48.9,0,0,1-3.376-4.765" transform="translate(-259.732 -0.031)" opacity="0.2" fill="url(#linear-gradient-6)"/>
    <path id="Path_13904" data-name="Path 13904" d="M557.041,137.8s8.123,8.252-9.834,16.688a5.028,5.028,0,0,1-1.159.294A4.854,4.854,0,0,1,542,153.4a15.438,15.438,0,0,1,3.4,4.7l1.224,1.463s.7.828,3.615-.064c0,0,11.361-3.937,10.855-15.869C561.1,143.632,560.914,138.876,557.041,137.8Z" transform="translate(-321.931 -19.518)" opacity="0.2" fill="url(#linear-gradient-7)"/>
  </g>
</svg>
