<svg xmlns="http://www.w3.org/2000/svg" width="75.667" height="72.585" viewBox="0 0 75.667 72.585">
  <g id="Historic-Jeddah-01" transform="translate(-99.7 -116.2)">
    <g id="Group_10902" data-name="Group 10902" transform="translate(99.7 131.589)">
      <path id="Path_13730" data-name="Path 13730" d="M388.843,563.4c-.331.019-.662.038-1,.066.492.5.945.993,1.38,1.465.284-.057.577-.113.87-.18-.444-.454-.851-.907-1.248-1.352m-7.647,1.1c-1.2.284-2.429.614-3.7,1.021a38.1,38.1,0,0,0,3.819.189c1.049,0,2.136-.047,3.252-.132-1.04-.388-2.165-.756-3.375-1.078" transform="translate(-351.241 -536.517)" fill="#70c4e2"/>
      <path id="Path_13731" data-name="Path 13731" d="M150.07,540.3h-5.416c.917.416,1.815.794,2.7,1.144.889-.35,1.8-.737,2.713-1.144m-31.193,2.571a35.739,35.739,0,0,0,7.137,1.635,47.526,47.526,0,0,0-7.137-1.635m-5.823.444a54.155,54.155,0,0,0-12.354,4.254V548.9h8.346a32.148,32.148,0,0,1,8.365-1.446,44.188,44.188,0,0,1-4.358-4.14" transform="translate(-100.605 -515.601)" fill="#70c4e2"/>
      <path id="Path_13732" data-name="Path 13732" d="M310.99,540.3h-5.653a34.117,34.117,0,0,0,5.057,2.316c1.078-.34,2.184-.737,3.3-1.172-.889-.35-1.8-.737-2.7-1.144m-8.271,0h-1.55c.86.747,1.645,1.512,2.373,2.25.34-.028.671-.047,1-.066-.681-.775-1.295-1.512-1.824-2.184m-14.925,2.136c-1.087,0-2.221.047-3.393.151.265.095.529.189.8.284a47.527,47.527,0,0,1,7.137,1.635c.284.038.558.066.851.094,1.257-.4,2.5-.737,3.7-1.021a35.866,35.866,0,0,0-9.093-1.144" transform="translate(-266.941 -515.601)" fill="#00acd2"/>
      <path id="Path_13733" data-name="Path 13733" d="M357.165,540.3H334.715a44.841,44.841,0,0,1,3.97,3.961c.955.151,1.89.274,2.807.359a49.114,49.114,0,0,0,15.672-4.32m-49.389,4.386a57.784,57.784,0,0,0-6.976,2.779,28.681,28.681,0,0,1,7.789,1.437h9.018a60.854,60.854,0,0,0-9.83-4.216" transform="translate(-281.791 -515.601)" fill="#70c4e2"/>
      <path id="Path_13734" data-name="Path 13734" d="M392.172,565.2a36.213,36.213,0,0,0,8.214,1.909,34.674,34.674,0,0,0-8.214-1.909m-4.707,1.191c-.293.066-.577.123-.87.18a44.35,44.35,0,0,1,3.819,4.887h2.76a45.343,45.343,0,0,1-5.709-5.067m18.054.416c.151.17.3.34.444.51.775-.028,1.56-.076,2.363-.151-.917-.085-1.853-.208-2.807-.359m-30.645.34c-.095.028-.18.057-.274.085a60.792,60.792,0,0,1,9.84,4.216h5.284a31.07,31.07,0,0,0-7.77-4.244c-1.115.095-2.2.132-3.252.132a38.173,38.173,0,0,1-3.828-.189" transform="translate(-348.615 -538.147)" fill="#00acd2"/>
      <path id="Path_13735" data-name="Path 13735" d="M271.875,540.3h-3.46c-.917.416-1.824.794-2.713,1.144a49.651,49.651,0,0,0,10.152,2.826,42.626,42.626,0,0,0-3.979-3.97m-36.288,2.363c-1.352.142-2.741.359-4.187.652a45.315,45.315,0,0,0,4.358,4.14c.331-.009.662-.019.983-.019q.61,0,1.219.028a57.786,57.786,0,0,1,6.976-2.779c-.189-.066-.388-.123-.577-.18a36.252,36.252,0,0,1-7.137-1.635c-.558-.085-1.1-.151-1.635-.208" transform="translate(-218.951 -515.601)" fill="#00acd2"/>
      <path id="Path_13736" data-name="Path 13736" d="M305.815,552.3c-1.125.444-2.221.832-3.3,1.172.038.009.066.028.1.038a34.447,34.447,0,0,1,8.214,1.909,37.713,37.713,0,0,0,4.225.236c.444,0,.9-.009,1.352-.028-.142-.17-.293-.34-.444-.51a48.42,48.42,0,0,1-10.152-2.817m-29.293,1.153c-.274.019-.548.047-.822.076.539.057,1.078.123,1.635.208-.274-.095-.548-.189-.813-.284m7.949,1.919c.189.057.388.123.577.18.095-.028.18-.057.274-.085-.284-.028-.567-.057-.851-.095" transform="translate(-259.064 -526.467)" fill="#009fc5"/>
      <path id="Path_13737" data-name="Path 13737" d="M108.536,540.3H100.7v2.864a55.771,55.771,0,0,0,7.836-2.864m28.669,2.25a43.847,43.847,0,0,0-6.655,1.04,32.382,32.382,0,0,1,3.384,1.078,42.781,42.781,0,0,0,4.651-.643c-.425-.492-.889-.974-1.38-1.475" transform="translate(-100.605 -515.601)" fill="#00acd2"/>
      <path id="Path_13738" data-name="Path 13738" d="M112.17,563a35.443,35.443,0,0,0-11.57,2.155v2.968a54.152,54.152,0,0,1,12.354-4.254l-.785-.87" transform="translate(-100.515 -536.155)" fill="#00acd2"/>
      <path id="Path_13739" data-name="Path 13739" d="M134.833,540.3H113.092a34.832,34.832,0,0,0,4.972,2.287c1.163-.1,2.3-.151,3.393-.151a35.555,35.555,0,0,1,9.1,1.153,43.665,43.665,0,0,1,6.655-1.04c-.737-.747-1.522-1.5-2.382-2.25m-24.359,0h-1.938a54.607,54.607,0,0,1-7.836,2.864v1.446a34.906,34.906,0,0,1,11.57-2.155c-.681-.775-1.276-1.493-1.8-2.155" transform="translate(-100.605 -515.601)" fill="#009fc5"/>
      <path id="Path_13740" data-name="Path 13740" d="M223.766,562.9c-.255,0-.51,0-.766.009q.383.425.794.879c1.446-.293,2.836-.51,4.187-.652a38.719,38.719,0,0,0-4.216-.236" transform="translate(-211.345 -536.065)" fill="#009fc5"/>
      <path id="Path_13741" data-name="Path 13741" d="M206.718,540.3H204.1c.52.662,1.115,1.39,1.786,2.146.255-.009.51-.009.766-.009a41,41,0,0,1,4.216.227c.274-.028.548-.057.822-.076a35.905,35.905,0,0,1-4.972-2.287" transform="translate(-194.232 -515.601)" fill="#0097b9"/>
      <path id="Path_13742" data-name="Path 13742" d="M456.951,579.6a42.843,42.843,0,0,1-4.651.643,30.891,30.891,0,0,1,7.77,4.244h.69a42.883,42.883,0,0,0-3.809-4.887" transform="translate(-418.971 -551.186)" fill="#009fc5"/>
      <path id="Path_13743" data-name="Path 13743" d="M271.993,623.2c-.492.246-.993.5-1.493.766H273c-.34-.255-.681-.51-1.011-.766" transform="translate(-254.355 -590.665)" fill="#70c4e2"/>
      <path id="Path_13744" data-name="Path 13744" d="M197.365,616.1A31.884,31.884,0,0,0,189,617.546h7.7c.5-.265,1-.52,1.493-.766-.284-.236-.558-.463-.832-.681" transform="translate(-180.559 -584.236)" fill="#00acd2"/>
      <path id="Path_13745" data-name="Path 13745" d="M287.671,616.1c-.454.217-.907.435-1.371.662.331.255.662.52,1.011.766h8.148a28.985,28.985,0,0,0-7.789-1.427" transform="translate(-268.662 -584.236)" fill="#00acd2"/>
      <path id="Path_13746" data-name="Path 13746" d="M278.483,615.9c-.321,0-.652.01-.983.019.274.227.548.454.832.671.454-.227.917-.454,1.371-.662q-.6-.028-1.219-.028" transform="translate(-260.694 -584.055)" fill="#009fc5"/>
      <path id="Path_13747" data-name="Path 13747" d="M827.237,567.5a47.525,47.525,0,0,0-7.137,1.635,36.248,36.248,0,0,0,7.137-1.635m.331,5.5c-.236.18-.463.359-.709.539h.709Z" transform="translate(-752.005 -540.23)" fill="#70c4e2"/>
      <path id="Path_13748" data-name="Path 13748" d="M499.447,562.9c-.633,0-1.286.019-1.947.047.388.444.8.9,1.248,1.352a46.439,46.439,0,0,0,4.537-1.21,38.223,38.223,0,0,0-3.838-.189m36.014.388c-.113.019-.217.028-.321.047A35.6,35.6,0,0,1,528,564.97a58.458,58.458,0,0,0-8.337,3.337c.284.4.529.756.737,1.059h14.358l.709-.539v-5.539Zm-16.636,5.435c-.406.208-.822.425-1.238.643h2.127c-.265-.2-.567-.416-.889-.643" transform="translate(-459.898 -536.065)" fill="#00acd2"/>
      <path id="Path_13749" data-name="Path 13749" d="M480.818,540.3H478.2c.529.671,1.144,1.418,1.824,2.193.662-.028,1.314-.047,1.947-.047a35.678,35.678,0,0,1,3.838.2.619.619,0,0,1,.066-.019,37.241,37.241,0,0,1-5.057-2.325m21.372,7.543c-.284.132-.558.274-.841.416.331.227.624.444.879.643h.69c-.2-.3-.444-.662-.728-1.059" transform="translate(-442.423 -515.601)" fill="#009fc5"/>
      <path id="Path_13750" data-name="Path 13750" d="M747.252,540.3h-.189a49.131,49.131,0,0,1-15.663,4.32c1.276.123,2.524.17,3.715.17a38.616,38.616,0,0,0,4.67-.284,47.527,47.527,0,0,1,7.137-1.635c.113-.038.217-.076.321-.113V540.3Z" transform="translate(-671.689 -515.601)" fill="#00acd2"/>
      <path id="Path_13751" data-name="Path 13751" d="M515.237,565q-2.339.737-4.537,1.21a44.617,44.617,0,0,0,5.709,5.066h13.129c.416-.217.832-.435,1.238-.643a31.214,31.214,0,0,0-7.165-3.7,36.337,36.337,0,0,1-8.214-1.909.443.443,0,0,0-.161-.028m32.176.123c-.1.038-.217.076-.321.113.113-.019.217-.028.321-.047Zm-7.467,1.749a38.6,38.6,0,0,1-4.669.284c-1.191,0-2.439-.057-3.715-.17-.8.076-1.6.123-2.363.151.992,1.153,1.8,2.212,2.42,3.072a58.374,58.374,0,0,1,8.328-3.337" transform="translate(-471.851 -537.966)" fill="#009fc5"/>
      <path id="Path_13752" data-name="Path 13752" d="M558.766,564.8a.137.137,0,0,1-.066.019c.057.009.113.009.161.019a.393.393,0,0,0-.095-.038m8.309,1.947a31.6,31.6,0,0,1,7.165,3.7c.284-.142.558-.284.841-.416-.624-.87-1.427-1.919-2.42-3.072-.454.019-.907.028-1.352.028a40.124,40.124,0,0,1-4.235-.236" transform="translate(-515.313 -537.785)" fill="#0097b9"/>
      <path id="Path_13753" data-name="Path 13753" d="M99.7,302.149h.567l.019-4.348.983-.331v-1.418l.18-.17V294.5l.444-.359v-.019a7.14,7.14,0,0,1,2.732-5.549c.747-.473,4.566-3.185,4.6-3.214l.047-.028-.047-.028c-.047-.028-.076-.057-.076-.1,0-.208.492-.558.681-.681l.019-.009.038-.255-.019-.009c-.047-.028-.161-.113-.151-.208,0-.066.066-.113.18-.17l.019-.009v-.492l-.009-.009s-.1-.076-.095-.151c0-.038.038-.076.095-.1l.019-.009v-.539l-.009-.009a.222.222,0,0,1-.057-.142c.009-.038.038-.066.1-.095l.019-.009v-.274l.047-.217v-.246l.095-.161.095.161v.246l.047.217v.274l.019.009a.151.151,0,0,1,.1.095c.019.066-.057.142-.057.142l-.009.009v.539l.019.009c.057.028.095.066.095.1,0,.076-.095.151-.095.151l-.009.009v.492l.019.009c.113.047.17.1.18.17.009.095-.113.18-.161.208l-.019.009.038.255.019.009c.189.123.69.473.681.681,0,.047-.028.076-.076.1l-.047.028.038.028c.038.028,3.857,2.751,4.6,3.233a6.471,6.471,0,0,1,1.683,1.9,6.591,6.591,0,0,1,1.04,3.658v.019l.444.369v1.38l.18.161V297.5l.983.331-.019,4.31h.567l.057-23.1L99.747,279Z" transform="translate(-99.7 -279)" fill="#c1b799"/>
    </g>
    <path id="Path_13754" data-name="Path 13754" d="M358.708,118.544h-.019v-1.815h-.009l-.255-.482h-.766l-.255.473h-.009v1.824H356.25V116.72h0l-.255-.482h-.775l-.255.482-.009,1.824h-1.144V116.72h0l-.255-.482h-.775l-.255.473h-.009v1.824h-1.144V116.71h0l-.255-.473h-.775l-.255.473h-.009v1.824h-1.144V116.71l-.255-.482H347.9l-.255.482h0l-.009,1.824-1.144-.009.009-1.824H346.5l-.255-.473h-.766l-.265.473h0l-.009,1.824h-1.134V116.7h0l-.255-.473-.775-.009-.255.482h0l-.009,1.824h-1.144l.009-1.824h-.009l-.255-.482H340.6l-.255.473h0l-.009,1.824h-1.144l.009-1.824h-.009l-.255-.473h-.775l-.255.473h0l-.009,1.824H336.75l.009-1.824h-.009l-.246-.482h-.775l-.255.482h-.009v1.824l-1.144-.009v-1.815h0l-.255-.482h-.775l-.265.473h0v1.824h-1.144v-1.824h0l-.265-.473-.766-.009-.255.482h-.009v1.824h-1.144v-1.824h0l-.255-.482h-.775l-.255.473h-.009V118.5H327v-1.824h0l-.255-.473h-.775l-.255.473h-.009V118.5H325.7v2.316l33,.047Z" transform="translate(-204.638)" fill="#c1b799"/>
    <g id="Group_10903" data-name="Group 10903" transform="translate(120.987 121.437)">
      <path id="Path_13755" data-name="Path 13755" d="M324.9,204.9h8.016l.047-20.19c.51-8.346,8.5-10.142,8.5-10.142h.019s7.978,1.815,8.46,10.161l-.057,20.162H357.9l.076-33.244-33.008-.047Z" transform="translate(-324.9 -171.6)" fill="#c1b799"/>
    </g>
    <path id="Path_13756" data-name="Path 13756" d="M121.005,199.3h-.889v-.52h.889Zm-2.07-1.361h-.889v-.52h.889Zm-2.269,1.352h-.889v-.52h.889Zm-2.562-1.361h-.889v-.52h.889Zm-2.269,1.352h-.889v-.52h.889Zm-2.552-1.352H108.4v-.52h.889Zm-2.278,1.342h-.879v-.52h.879Zm-2.562-1.352h-.889v-.52h.889Zm-2.117,1.352h-.879v-.529h.879Zm19.132-5.671h-.775l-.255.482h0v1.824h-1.144v-1.824h0l-.255-.482h-.775l-.255.482h0v1.824h-1.144v-1.824h0l-.255-.482h-.785l-.255.482h0v1.824h-1.144v-1.824h0l-.255-.482h-.775l-.255.482h0v1.824h-1.144v-1.824h0l-.255-.482h-.775l-.255.482h0v1.824h-1.144v-1.824h0l-.255-.482h-.775l-.255.482v1.824h-1.144v-1.824h0l-.255-.482H106.1l-.255.482h0v1.824H104.7v-1.824h0l-.255-.482h-.775l-.255.482h0v1.824h-1.144v-1.824l-.255-.482h-.775l-.255.482h-.009v1.824h-.066l-.009,5.5,20.8.028.009-4.348h.009V194.11h0Z" transform="translate(-1.087 -70.084)" fill="#c1b799"/>
    <path id="Path_13757" data-name="Path 13757" d="M679.4,303.145h.728l.038-14.273,9.679-6.38,9.67,6.409-.038,14.245h.718l.057-23.017-20.8-.028Z" transform="translate(-524.904 -148.408)" fill="#c1b799"/>
    <path id="Path_13758" data-name="Path 13758" d="M700.2,200.109h-.879v-.52h.889Zm-2.07-1.361h-.889v-.52h.889Zm-2.269,1.352h-.889v-.52h.889Zm-2.562-1.361h-.889v-.52h.889Zm-2.269,1.352h-.888v-.52h.888Zm-2.552-1.352h-.889v-.52h.889Zm-2.278,1.342h-.888v-.52h.888Zm-2.562-1.352h-.889v-.52h.889Zm-2.117,1.352h-.879v-.52h.879Zm19.387-5.2-.255-.482h-.775l-.255.482h0v1.824h-1.144v-1.824h0l-.255-.482h-.775l-.255.482h0v1.824h-1.144v-1.824h0l-.255-.482h-.785l-.255.482h0v1.824h-1.144v-1.824h0l-.255-.482h-.775l-.255.482h0v1.824h-1.144v-1.824h-.028l-.255-.482h-.775l-.255.482h0v1.824h-1.144v-1.824h0l-.255-.482h-.775l-.255.482h0v1.824h-1.144v-1.824h-.009l-.255-.482h-.775l-.255.482h0v1.824h-1.144v-1.824h-.009l-.255-.482h-.775l-.255.482h0v1.824h-1.144v-1.824l-.255-.482h-.775l-.255.482h-.009v1.824h-.01l-.009,5.511,20.8.028-.009-4.386h.009l.009-2.978Z" transform="translate(-525.538 -70.808)" fill="#c1b799"/>
    <g id="Group_10904" data-name="Group 10904" transform="translate(100.182 165.835)">
      <path id="Path_13759" data-name="Path 13759" d="M109.668,665.362a.82.82,0,0,1,.047-.265.674.674,0,0,1,.142-.208.58.58,0,0,1,.217-.142.821.821,0,0,1,.265-.047.678.678,0,0,1,.671.671.82.82,0,0,1-.047.265,1.071,1.071,0,0,1-.142.217.626.626,0,0,1-.208.142.646.646,0,0,1-.529,0,.861.861,0,0,1-.217-.142.542.542,0,0,1-.142-.217.712.712,0,0,1-.057-.274m-1.872,0a.82.82,0,0,1,.047-.265.674.674,0,0,1,.142-.208.58.58,0,0,1,.217-.142.821.821,0,0,1,.265-.047.621.621,0,0,1,.473.2.635.635,0,0,1,.2.473.82.82,0,0,1-.047.265,1.071,1.071,0,0,1-.142.217.579.579,0,0,1-.217.142.646.646,0,0,1-.529,0,.861.861,0,0,1-.217-.142.542.542,0,0,1-.142-.217.928.928,0,0,1-.047-.274m.945,8.63.18-2.741h-.51a3.469,3.469,0,0,0-.785.095,2.463,2.463,0,0,0-.785.3,2.038,2.038,0,0,0-.6.529,1.264,1.264,0,0,0-.246.775,1.128,1.128,0,0,0,.085.444.891.891,0,0,0,.265.359,1.26,1.26,0,0,0,.463.236,2.365,2.365,0,0,0,.671.085Zm-2.07,1.21a2.952,2.952,0,0,1-.936-.312,1.906,1.906,0,0,1-.671-.614,1.825,1.825,0,0,1-.265-1.011,2.848,2.848,0,0,1,1-2.165,3.975,3.975,0,0,1,1.276-.737,6.189,6.189,0,0,1,1.815-.35c-.009-.132-.019-.274-.028-.435s-.019-.312-.038-.482l-.028-.482q-.014-.241-.028-.454c.255-.123.482-.236.69-.35s.378-.217.52-.312c.17-.1.321-.208.454-.3L109.866,674h.444v1.276h-2.59a5.55,5.55,0,0,1-1.049-.076" transform="translate(-104.8 -662.488)" fill="#507281"/>
      <path id="Path_13760" data-name="Path 13760" d="M164.175,724.341a.821.821,0,0,1,.047-.265.674.674,0,0,1,.142-.208.485.485,0,0,1,.217-.142.634.634,0,0,1,.265-.057.651.651,0,0,1,.473.2.635.635,0,0,1,.2.473.82.82,0,0,1-.047.265.672.672,0,0,1-.142.208.691.691,0,0,1-.217.151.592.592,0,0,1-.255.057.634.634,0,0,1-.265-.057.6.6,0,0,1-.217-.151.512.512,0,0,1-.142-.208.667.667,0,0,1-.057-.265m-1.872,0a.821.821,0,0,1,.047-.265.674.674,0,0,1,.142-.208.485.485,0,0,1,.217-.142.657.657,0,0,1,.737.142.627.627,0,0,1,.189.473.819.819,0,0,1-.047.265.672.672,0,0,1-.142.208.691.691,0,0,1-.217.151.645.645,0,0,1-.529,0,.691.691,0,0,1-.217-.151.512.512,0,0,1-.142-.208,1.275,1.275,0,0,1-.038-.265m-.8-2.061V721h3.195c-.057-.293-.123-.6-.189-.926s-.132-.652-.2-.974-.132-.662-.2-.983-.123-.643-.18-.936c.18-.1.359-.2.539-.3s.35-.189.52-.284l.747,4.414h.17v1.276h-4.4Z" transform="translate(-156.14 -709.482)" fill="#507281"/>
      <path id="Path_13761" data-name="Path 13761" d="M210.542,673.462a.634.634,0,0,1,.057-.265.673.673,0,0,1,.142-.208.485.485,0,0,1,.217-.142.627.627,0,0,1,.265-.047.678.678,0,0,1,.671.671.821.821,0,0,1-.047.265.808.808,0,0,1-.142.208.653.653,0,0,1-.208.151.645.645,0,0,1-.529,0,.692.692,0,0,1-.217-.151.512.512,0,0,1-.142-.208.56.56,0,0,1-.066-.274M214.606,684c-.236-.246-.444-.463-.633-.681s-.378-.425-.577-.643l-.047-.057H206.6v-1.276h5.709a20.812,20.812,0,0,1-1.191-1.834,14.069,14.069,0,0,1-.681-1.4,5.077,5.077,0,0,1-.3-.992,3.771,3.771,0,0,1-.066-.633v-.113a.21.21,0,0,1,.009-.085l1.219-.671c.019.208.066.492.132.851a8.881,8.881,0,0,0,.35,1.276,14.7,14.7,0,0,0,.671,1.635,15.757,15.757,0,0,0,1.106,1.947h1.323V682.6h-.406c.057.057.113.132.189.217s.151.18.236.284.17.2.255.3.17.2.255.284Z" transform="translate(-196.977 -669.823)" fill="#507281"/>
      <path id="Path_13762" data-name="Path 13762" d="M294.333,713.385a.635.635,0,0,1,.057-.265.809.809,0,0,1,.142-.208.543.543,0,0,1,.217-.142.673.673,0,0,1,.936.614.819.819,0,0,1-.047.265.672.672,0,0,1-.142.208.693.693,0,0,1-.217.151.646.646,0,0,1-.529,0,.694.694,0,0,1-.217-.151.512.512,0,0,1-.142-.208.667.667,0,0,1-.057-.265m-1.872,0a.821.821,0,0,1,.047-.265.81.81,0,0,1,.142-.208.485.485,0,0,1,.217-.142.673.673,0,0,1,.936.614.82.82,0,0,1-.047.265.674.674,0,0,1-.142.208.654.654,0,0,1-.208.151.592.592,0,0,1-.255.057.635.635,0,0,1-.265-.057.693.693,0,0,1-.217-.151.512.512,0,0,1-.142-.208.549.549,0,0,1-.066-.265m2.136-8.318c.18-.1.35-.208.5-.293s.312-.18.473-.274c.028.6.047,1.182.076,1.749s.047,1.115.066,1.673.047,1.106.066,1.673.047,1.134.076,1.73H291.8v-1.276h3.025Z" transform="translate(-274.124 -698.526)" fill="#507281"/>
      <path id="Path_13763" data-name="Path 13763" d="M352.424,731.254a6.006,6.006,0,0,1-.132.841,3.729,3.729,0,0,1-.284.766,2.588,2.588,0,0,1-.463.643,2.647,2.647,0,0,1-.69.482,3.248,3.248,0,0,1-.955.284,5.035,5.035,0,0,0,.482-.567,3.844,3.844,0,0,0,.425-.756,4.437,4.437,0,0,0,.312-.945,5.392,5.392,0,0,0,.113-1.144c0-.2,0-.425-.009-.681s-.019-.52-.028-.8-.019-.567-.038-.851-.028-.548-.038-.8-.028-.482-.038-.681-.019-.35-.028-.463c.255-.142.492-.274.718-.4s.454-.246.69-.378v4.565c0,.3-.019.6-.038.889" transform="translate(-326.732 -717.813)" fill="#507281"/>
      <path id="Path_13764" data-name="Path 13764" d="M392.888,654.1c-.028-1.04-.057-2.07-.095-3.081s-.066-2.023-.1-3.025-.066-2.013-.095-3.025-.066-2.042-.095-3.081c.208-.1.406-.208.577-.3s.359-.189.548-.284L394,652.813h.151v1.276h-1.267Z" transform="translate(-365.305 -641.3)" fill="#507281"/>
      <path id="Path_13765" data-name="Path 13765" d="M411.335,701.562a.82.82,0,0,1,.047-.265.809.809,0,0,1,.142-.208.485.485,0,0,1,.217-.142.627.627,0,0,1,.265-.047.662.662,0,0,1,.662.671.82.82,0,0,1-.047.265.808.808,0,0,1-.142.208.667.667,0,0,1-.217.142.646.646,0,0,1-.529,0,.723.723,0,0,1-.217-.142.738.738,0,0,1-.142-.208.914.914,0,0,1-.038-.274m-1.881,0a.82.82,0,0,1,.047-.265.81.81,0,0,1,.142-.208.543.543,0,0,1,.217-.142.627.627,0,0,1,.265-.047.621.621,0,0,1,.473.2.651.651,0,0,1,.2.473.634.634,0,0,1-.057.265.809.809,0,0,1-.142.208.581.581,0,0,1-.217.142.646.646,0,0,1-.529,0,.865.865,0,0,1-.217-.142.739.739,0,0,1-.142-.208,1.367,1.367,0,0,1-.038-.274m-1.654,6.5v-1.276h2.892c.019-.227.047-.463.076-.709s.057-.492.076-.737.057-.5.085-.747.057-.482.076-.709l1.087-.567-.284,3.478h.17v1.276H407.8Z" transform="translate(-379.159 -695.266)" fill="#507281"/>
      <path id="Path_13766" data-name="Path 13766" d="M451.167,641.977c.1-.057.2-.1.284-.151s.17-.095.246-.142.161-.095.236-.142.17-.095.255-.142l.416,12.8h-3.9v-1.276h2.8Z" transform="translate(-416.193 -641.391)" fill="#507281"/>
      <path id="Path_13767" data-name="Path 13767" d="M509.788,642.005c.2-.1.388-.208.558-.312s.35-.2.539-.293c-.066,1.909-.123,3.79-.189,5.671s-.123,3.762-.189,5.653a1.672,1.672,0,0,0-.009.217v.2a3.071,3.071,0,0,0,.038.567.828.828,0,0,0,.151.359,3.673,3.673,0,0,1-.444.161,1.331,1.331,0,0,1-.34.057c-.189,0-.321-.142-.388-.435a5.1,5.1,0,0,1-.113-1.229Z" transform="translate(-471.156 -641.391)" fill="#507281"/>
      <path id="Path_13768" data-name="Path 13768" d="M566.477,667.362a.82.82,0,0,1,.047-.265.81.81,0,0,1,.142-.208.485.485,0,0,1,.217-.142.628.628,0,0,1,.265-.047.664.664,0,0,1,.473.189.635.635,0,0,1,.2.473.819.819,0,0,1-.047.265.808.808,0,0,1-.142.208.9.9,0,0,1-.217.151.6.6,0,0,1-.265.057.635.635,0,0,1-.265-.057.6.6,0,0,1-.217-.151.622.622,0,0,1-.189-.473m-1.881,0a.821.821,0,0,1,.047-.265.81.81,0,0,1,.142-.208.485.485,0,0,1,.217-.142.628.628,0,0,1,.265-.047.664.664,0,0,1,.473.189.627.627,0,0,1,.189.473.821.821,0,0,1-.047.265.809.809,0,0,1-.142.208.744.744,0,0,1-.217.151.592.592,0,0,1-.255.057.635.635,0,0,1-.265-.057.6.6,0,0,1-.217-.151.512.512,0,0,1-.142-.208.821.821,0,0,1-.047-.265m.917,8.526a1.7,1.7,0,0,0,.567-.094,1.153,1.153,0,0,0,.388-.255.966.966,0,0,0,.227-.359,1.234,1.234,0,0,0,.076-.406l-.161-1.7h-.775a2.517,2.517,0,0,0-.709.094,1.508,1.508,0,0,0-.586.3,1.309,1.309,0,0,0-.388.529,1.924,1.924,0,0,0-.142.775,1.128,1.128,0,0,0,.085.444.891.891,0,0,0,.265.359,1.258,1.258,0,0,0,.463.236,2.316,2.316,0,0,0,.671.085h.019Zm.274,1.21c-.2,0-.406-.009-.633-.028a4.153,4.153,0,0,1-.671-.113,3.6,3.6,0,0,1-.633-.227,1.771,1.771,0,0,1-.907-.907,1.86,1.86,0,0,1-.142-.756,4.135,4.135,0,0,1,.17-1.172,2.678,2.678,0,0,1,.586-1.03,3.279,3.279,0,0,1,1.106-.766,4.975,4.975,0,0,1,1.758-.359c-.019-.123-.038-.265-.057-.416l-.057-.482c-.019-.161-.038-.331-.057-.492s-.047-.312-.066-.454c.255-.123.482-.236.652-.34a4.53,4.53,0,0,0,.435-.274,1.911,1.911,0,0,0,.321-.255c.038.482.066.974.094,1.465s.047.983.066,1.484.038.992.057,1.484.047.983.085,1.465a1.438,1.438,0,0,1-.019.236,3.157,3.157,0,0,1-.076.425,2.181,2.181,0,0,1-.2.51,1.8,1.8,0,0,1-.955.86,2.307,2.307,0,0,1-.86.142" transform="translate(-519.508 -664.299)" fill="#507281"/>
      <path id="Path_13769" data-name="Path 13769" d="M636.182,738.028h10.142a1.885,1.885,0,0,0-.066-.529,1.257,1.257,0,0,0-.2-.425.921.921,0,0,0-.369-.284,1.35,1.35,0,0,0-.548-.1h-8.5c.047-.132.094-.255.132-.359s.076-.208.113-.3.076-.189.113-.293.076-.208.123-.331h8.649a1.538,1.538,0,0,1,.624.132,1.831,1.831,0,0,1,.9.9,1.425,1.425,0,0,1,.132.624v.974h.151V739.3H635.7Z" transform="translate(-585.517 -726.505)" fill="#507281"/>
      <path id="Path_13770" data-name="Path 13770" d="M763.121,713.762a.82.82,0,0,0,.047.265.653.653,0,0,0,.359.35.633.633,0,0,0,.265.057.564.564,0,0,0,.255-.057.863.863,0,0,0,.217-.142,1.015,1.015,0,0,0,.142-.208.628.628,0,0,0,.047-.265.635.635,0,0,0-.2-.473.65.65,0,0,0-.473-.2.636.636,0,0,0-.265.057.862.862,0,0,0-.217.142.625.625,0,0,0-.142.208,1.191,1.191,0,0,0-.038.265m4.036-3.261a9.875,9.875,0,0,1-1.758-.7,11.865,11.865,0,0,1-3.025-2.212,8.224,8.224,0,0,1-1.04-1.276c.123-.142.236-.265.331-.369s.189-.2.265-.293l.236-.265c.076-.085.17-.189.274-.3l.076-.085a9.279,9.279,0,0,0,.7,1.3,8.706,8.706,0,0,0,.983,1.257,9.25,9.25,0,0,0,1.276,1.134,8.636,8.636,0,0,0,1.588.926,10.281,10.281,0,0,0,1.909.633,11.076,11.076,0,0,0,2.25.246c-.076.218-.151.425-.227.643s-.151.425-.217.633H758.3V710.5h8.857Z" transform="translate(-696.529 -698.979)" fill="#507281"/>
    </g>
    <path id="Path_13771" data-name="Path 13771" d="M685.128,364.662Zm9.878-6.513-9.878,6.513-.028-2.231,9.916-6.532,9.849,6.626.009,2.174Z" transform="translate(-530.066 -217.043)" fill="#c1b799"/>
    <line id="Line_2" data-name="Line 2" y2="20.654" transform="translate(164.931 134.084)" fill="none" stroke="#c1b799" stroke-width="0.393"/>
    <g id="Group_10905" data-name="Group 10905" transform="translate(103.207 138.479)">
      <path id="Path_13772" data-name="Path 13772" d="M143.861,351.9s4.159,3.5,4.159,11.664m-3.2-11.664a13.666,13.666,0,0,1,6.04,11.664M143.795,351.9s-4.159,3.5-4.159,11.664m3.2-11.664a13.666,13.666,0,0,0-6.04,11.664" transform="translate(-136.8 -351.9)" fill="none" stroke="#c1b799" stroke-linecap="round" stroke-linejoin="round" stroke-width="0.393"/>
    </g>
    <path id="Path_13773" data-name="Path 13773" d="M103.358,837.6v1.815h2.089V837.6h.567v4.329h-.567V839.9h-2.089v2.032H102.8V837.6Z" transform="translate(-2.807 -653.21)" fill="#87a1a9"/>
    <rect id="Rectangle_17337" data-name="Rectangle 17337" width="0.558" height="4.329" transform="translate(105.939 184.39)" fill="#87a1a9"/>
    <g id="Group_10906" data-name="Group 10906" transform="translate(109.531 184.324)">
      <path id="Path_13774" data-name="Path 13774" d="M203.832,840.615a2.018,2.018,0,0,0,1,.284c.577,0,.907-.3.907-.737,0-.406-.236-.633-.813-.86-.709-.246-1.144-.614-1.144-1.229a1.245,1.245,0,0,1,1.4-1.172,2.011,2.011,0,0,1,.955.208l-.151.454a1.755,1.755,0,0,0-.822-.208c-.586,0-.813.35-.813.643,0,.406.265.6.86.832.728.284,1.106.633,1.106,1.276,0,.662-.492,1.248-1.512,1.248a2.266,2.266,0,0,1-1.106-.274Z" transform="translate(-203.7 -836.9)" fill="#87a1a9"/>
    </g>
    <path id="Path_13775" data-name="Path 13775" d="M250.614,838.073H249.3V837.6h3.2v.473h-1.323v3.857h-.567Z" transform="translate(-135.459 -653.21)" fill="#87a1a9"/>
    <g id="Group_10907" data-name="Group 10907" transform="translate(118.085 184.324)">
      <path id="Path_13776" data-name="Path 13776" d="M294.786,839.159c0,.926.5,1.749,1.38,1.749s1.39-.813,1.39-1.8c0-.86-.454-1.758-1.38-1.758s-1.389.851-1.389,1.805m3.365-.076a2.024,2.024,0,0,1-2,2.278,1.985,1.985,0,0,1-1.947-2.193,2.053,2.053,0,0,1,2.013-2.269,1.964,1.964,0,0,1,1.938,2.183" transform="translate(-294.2 -836.9)" fill="#87a1a9"/>
      <path id="Path_13777" data-name="Path 13777" d="M349.558,839.27h.567c.6,0,.974-.331.974-.822,0-.558-.406-.8-.993-.813a2,2,0,0,0-.548.057ZM349,837.295a5.9,5.9,0,0,1,1.068-.094,1.79,1.79,0,0,1,1.248.35,1.081,1.081,0,0,1,.34.822,1.148,1.148,0,0,1-.813,1.106v.019a1.083,1.083,0,0,1,.633.87,7.7,7.7,0,0,0,.331,1.191h-.577a5.929,5.929,0,0,1-.293-1.03c-.132-.6-.359-.822-.87-.841h-.529v1.872H349Z" transform="translate(-343.82 -837.172)" fill="#87a1a9"/>
    </g>
    <rect id="Rectangle_17338" data-name="Rectangle 17338" width="0.558" height="4.329" transform="translate(129.002 184.39)" fill="#87a1a9"/>
    <g id="Group_10908" data-name="Group 10908" transform="translate(132.254 184.324)">
      <path id="Path_13778" data-name="Path 13778" d="M447.38,841.154a2.748,2.748,0,0,1-1.144.208,2.025,2.025,0,0,1-2.136-2.193,2.151,2.151,0,0,1,2.259-2.269,2.3,2.3,0,0,1,1.021.189l-.132.454a1.988,1.988,0,0,0-.87-.18,1.608,1.608,0,0,0-1.683,1.786,1.571,1.571,0,0,0,1.664,1.739,2.122,2.122,0,0,0,.907-.18Z" transform="translate(-444.1 -836.9)" fill="#87a1a9"/>
      <path id="Path_13779" data-name="Path 13779" d="M578.642,837.6h.558v2.892c0,1.144-.567,1.5-1.3,1.5a1.816,1.816,0,0,1-.6-.1l.085-.454a1.282,1.282,0,0,0,.473.085c.5,0,.794-.227.794-1.068V837.6Z" transform="translate(-564.709 -837.534)" fill="#87a1a9"/>
    </g>
    <path id="Path_13780" data-name="Path 13780" d="M635.24,839.9h-1.682v1.56h1.881v.473H633V837.6h2.335v.473h-1.777v1.361h1.682Z" transform="translate(-482.89 -653.21)" fill="#87a1a9"/>
    <g id="Group_10909" data-name="Group 10909" transform="translate(155.091 184.352)">
      <path id="Path_13781" data-name="Path 13781" d="M686.258,841.123a3.205,3.205,0,0,0,.567.038,1.666,1.666,0,0,0,1.843-1.834,1.542,1.542,0,0,0-1.749-1.673,3.363,3.363,0,0,0-.652.057v3.412Zm-.558-3.828a7.331,7.331,0,0,1,1.191-.094,2.48,2.48,0,0,1,1.749.539,1.975,1.975,0,0,1,.614,1.55,2.277,2.277,0,0,1-.624,1.682,2.65,2.65,0,0,1-1.909.624,10.091,10.091,0,0,1-1.011-.047v-4.254Z" transform="translate(-685.7 -837.2)" fill="#87a1a9"/>
      <path id="Path_13782" data-name="Path 13782" d="M744.767,841.123a3.2,3.2,0,0,0,.567.038,1.666,1.666,0,0,0,1.843-1.834,1.542,1.542,0,0,0-1.749-1.673,3.361,3.361,0,0,0-.652.057v3.412Zm-.567-3.828a7.333,7.333,0,0,1,1.191-.094,2.48,2.48,0,0,1,1.749.539,1.97,1.97,0,0,1,.6,1.55,2.276,2.276,0,0,1-.624,1.682,2.65,2.65,0,0,1-1.909.624,10.093,10.093,0,0,1-1.011-.047Z" transform="translate(-738.67 -837.2)" fill="#87a1a9"/>
      <path id="Path_13783" data-name="Path 13783" d="M804.848,840.124l-.425-1.248c-.095-.284-.161-.539-.227-.794h-.019c-.066.255-.132.52-.217.784l-.425,1.248h1.314Zm-1.418.444-.454,1.361H802.4l1.465-4.329h.671l1.475,4.329h-.6l-.463-1.361Z" transform="translate(-791.369 -837.562)" fill="#87a1a9"/>
    </g>
    <path id="Path_13784" data-name="Path 13784" d="M863.658,837.6v1.815h2.1V837.6h.567v4.329h-.567V839.9h-2.1v2.032H863.1V837.6Z" transform="translate(-691.24 -653.21)" fill="#87a1a9"/>
  </g>
</svg>
